<svg version="1.1" viewBox="0.0 0.0 288.0 48.0" fill="none" stroke="none" stroke-linecap="square" stroke-miterlimit="10" xmlns:xlink="http://www.w3.org/1999/xlink" xmlns="http://www.w3.org/2000/svg"><clipPath id="p.0"><path d="m0 0l288.0 0l0 48.0l-288.0 0l0 -48.0z" clip-rule="nonzero"/></clipPath><g clip-path="url(#p.0)"><path fill="#000000" fill-opacity="0.0" d="m0 0l288.0 0l0 48.0l-288.0 0z" fill-rule="evenodd"/><path fill="#ffffff" d="m0.29396325 -0.097112864l288.0 0l0 48.0l-288.0 0z" fill-rule="evenodd"/><path fill="#000000" d="m13.131039 7.8965473c1.0532942 0 1.8165464 0.65484524 2.2897701 1.9645348c0.4753952 1.3096895 0.7130985 3.3361683 0.7130985 6.0794373c0 1.8937397 -0.12975693 3.430561 -0.3892603 4.610462c-0.2573309 1.1740017 -0.6116953 1.9881325 -1.0631075 2.4423943c-0.45141125 0.44836235 -1.1318007 0.6725426 -2.0411663 0.6725426l-0.55935764 0l0 -15.769371zm-6.015553 -1.9379864l0 0.9822669c0.60842466 0 1.0238538 0.15043736 1.2462888 0.45131207c0.222435 0.3008747 0.37726307 0.70499086 0.4644966 1.2123475c0.08940601 0.5014591 0.13411522 1.725605 0.13411522 3.6724405l0 23.36203c0 1.9468384 -0.044709206 3.1680336 -0.13411522 3.6635933c-0.08723354 0.49555588 -0.24097538 0.89967346 -0.4612255 1.2123489c-0.21807766 0.30677032 -0.634593 0.4601593 -1.2495599 0.4601593l0 0.9822655l6.81043 0l0 -0.9822655c-0.6084242 0 -1.0238543 -0.1504364 -1.2462893 -0.45131302c-0.222435 -0.3008728 -0.3783617 -0.7020416 -0.46776676 -1.2034988c-0.08723354 -0.50735855 -0.13084412 -1.7344513 -0.13084412 -3.6812897l0 -10.088148l0.8733835 0l4.288412 16.406515l4.190279 0l0 -0.9822655c-0.3532791 -0.05309677 -0.6640339 -0.35396957 -0.9322643 -0.9026222c-0.17663765 -0.38936996 -0.474308 -1.3716354 -0.8930092 -2.946804l-3.1991367 -12.185423c0.8112335 -0.54865265 1.4425564 -1.3716335 1.8939667 -2.4689407c0.7065582 -1.7344551 1.0598373 -3.9290695 1.0598373 -6.583846c0 -2.1769161 -0.23551941 -4.0736055 -0.7065582 -5.69007c-0.4710369 -1.6223621 -1.079462 -2.7344184 -1.8252735 -3.3361688c-0.74580956 -0.6017494 -1.9234066 -0.90262365 -3.5327873 -0.90262365z" fill-rule="evenodd"/><path fill="#000000" d="m29.13653 7.15321c0.6607628 0 1.2441044 0.48670864 1.75004 1.4601264c0.50810623 0.97341824 0.9257202 2.6429787 1.2528305 5.0086784c0.3271103 2.3598013 0.49066544 5.9201508 0.49066544 10.681049c0 3.9998627 -0.16028595 7.244589 -0.48085022 9.734179c-0.32057 2.4836922 -0.7687111 4.291889 -1.3444233 5.424595c-0.4514122 0.88492584 -1.0140419 1.3273888 -1.6878891 1.3273888c-1.0009556 0 -1.7794781 -1.026516 -2.3355637 -3.0795403c-0.7981491 -2.937954 -1.1972237 -7.477621 -1.1972237 -13.619003c0 -5.167965 0.25841713 -9.132431 0.7752514 -11.893398c0.63459206 -3.3627167 1.5603142 -5.0440745 2.7771626 -5.0440745zm0.23670769 -1.7170048c-0.11688995 0 -0.23504639 0.005981922 -0.35446548 0.017947674c-0.110235214 -0.011927605 -0.21948433 -0.017891884 -0.3277626 -0.017891884c-1.8197155 0 -3.364544 1.6843724 -4.6344967 5.0531178c-1.3433361 3.5633001 -2.0149975 8.017425 -2.0149975 13.362374c0 4.7608986 0.51683426 8.875801 1.5505009 12.3447075c1.3084393 4.3892326 3.1598835 6.583847 5.554327 6.583847c2.3879032 0 4.2360764 -2.300808 5.5445137 -6.90242c0.9878731 -3.4689064 1.4818115 -7.4864674 1.4818115 -12.052683c0 -5.3449497 -0.6629486 -9.796124 -1.9888306 -13.353524c-1.2491379 -3.3569841 -2.8526669 -5.0354753 -4.8106003 -5.0354753z" fill-rule="evenodd"/><path fill="#000000" d="m37.29138 5.958561l0 0.9822669l0.42197418 0c0.37290573 0 0.6705742 0.17403507 0.8930092 0.5221062c0.222435 0.34217072 0.36963272 0.7403865 0.44159698 1.1946492c0.071964264 0.4483633 0.1079483 1.5840168 0.1079483 3.4069633l0 22.777979c0 1.6105652 -0.006542206 2.5131874 -0.019626617 2.7078743c-0.071964264 0.8318291 -0.17337036 1.4778252 -0.30421448 1.9379845c-0.13084412 0.46016312 -0.32383728 0.8288803 -0.5789833 1.1061592c-0.23952484 0.25476074 -0.49634552 0.3821411 -0.77046585 0.3821411c-0.017875671 0 -0.035827637 -5.41687E-4 -0.05385208 -0.001625061l-0.13738632 0l0 0.9822655l4.5533714 0l0 -0.9822655c-0.60842514 0 -1.0554733 -0.2772789 -1.3411484 -0.8318291c-0.28349304 -0.5604553 -0.46776962 -1.2831421 -0.5528183 -2.168068c-0.03271103 -0.40706635 -0.049064636 -1.4955254 -0.049064636 -3.2653732l0 -25.353115l5.181423 32.60065l0.2355156 0l5.1029167 -32.83958l0 26.6805c0 1.8052483 -0.035980225 2.9202538 -0.10794449 3.3450203c-0.09813309 0.6017494 -0.2289772 1.0265121 -0.39253235 1.274292c-0.23551941 0.37166977 -0.5495453 0.55750275 -0.94207764 0.55750275l-0.43178558 0l0 0.9822655l6.9478188 0l0 -0.9822655l-0.43178558 0c-0.37290573 0 -0.670578 -0.17108536 -0.893013 -0.5132561c-0.222435 -0.34807205 -0.36963272 -0.7521858 -0.44159698 -1.2123489c-0.071964264 -0.4601593 -0.10794449 -1.6105652 -0.10794449 -3.45121l0 -23.733698c0 -1.78755 0.035980225 -2.8937063 0.10794449 -3.318471c0.09813309 -0.5840502 0.2289772 -0.99996567 0.39253235 -1.2477446c0.23551941 -0.37166882 0.5495453 -0.5575032 0.94207764 -0.5575032l0.43178558 0l0 -0.9822669l-5.4169426 0l-3.6112938 23.7337l-3.7388687 -23.7337z" fill-rule="evenodd"/><path fill="#000000" d="m61.90314 17.347551l1.9822845 12.397804l-4.0234528 0l2.0411682 -12.397804zm1.1874084 -12.132328l-4.759453 28.72468c-0.4514084 2.743267 -0.8308563 4.554413 -1.13834 5.433441c-0.30748367 0.873127 -0.700016 1.407032 -1.177597 1.6017151l0 0.9822655l4.4257965 0l0 -0.9822655c-0.69347 -0.1415863 -1.1285286 -0.35396957 -1.3051682 -0.637146c-0.30094147 -0.4778595 -0.4514122 -1.221199 -0.4514122 -2.230011c0 -0.7610359 0.09159088 -1.725605 0.27477264 -2.8937073l0.5593605 -3.504305l4.700569 0l0.7065582 4.4865704c0.18318176 1.1681023 0.28131104 1.8317986 0.29439545 1.991085c0.039253235 0.33626938 0.058883667 0.6636925 0.058883667 0.9822655c0 0.53095627 -0.07196808 0.9380226 -0.2158966 1.221199c-0.20935059 0.38936615 -0.5724411 0.5840492 -1.0892715 0.5840492l-0.26496124 0l0 0.9822655l6.437523 0l0 -0.9822655c-0.40561676 -0.08849335 -0.71964264 -0.40706635 -0.94207764 -0.955719c-0.29439545 -0.72563934 -0.6705704 -2.486641 -1.1285248 -5.2830048l-4.798706 -29.521112z" fill-rule="evenodd"/><path fill="#000000" d="m70.6566 5.958561l0 0.9822669c0.40561676 0.035397053 0.7163696 0.2035327 0.93226624 0.5044074c0.21588898 0.3008747 0.4644928 0.92917156 0.74581146 1.8848915l0.28458405 0.955719l0 25.406208c0 1.911438 -0.14392853 3.2653732 -0.43178558 4.0618095c-0.28785706 0.7964325 -0.7981491 1.203495 -1.5308762 1.2211952l0 0.9822655l4.7201996 0l0 -0.9822655l-0.31402588 0c-0.4514084 0 -0.85266113 -0.36281967 -1.2037659 -1.088459c-0.3489151 -0.72563934 -0.52337646 -2.1238213 -0.52337646 -4.1945457l0 -22.88417l8.998795 29.972424l0.3336563 0l0 -29.972424c0 -1.6990566 0.05342865 -2.896655 0.16028595 -3.5927973c0.10903931 -0.7020397 0.25950623 -1.2064476 0.4514084 -1.5132222c0.19408417 -0.31267405 0.5724411 -0.56635237 1.1350708 -0.7610359l0 -0.9822669l-4.3963547 0l0 0.9822669c0.024642944 -0.0011796951 0.049041748 -0.0017695427 0.07321167 -0.0017695427c0.70092773 0 1.2031708 0.4961481 1.5067291 1.4884443c0.22897339 0.7610359 0.34346008 2.2211628 0.34346008 4.3803806l0 15.477345l-6.565094 -22.326668z" fill-rule="evenodd"/><path fill="#000000" d="m100.361465 5.958561l0 0.9822669l0.44159698 0c0.43178558 0 0.7719803 0.24777937 1.0205841 0.74333763c0.17663574 0.33627176 0.29766846 0.81413126 0.36309052 1.433579c0.032707214 0.37166882 0.049064636 1.3716345 0.049064636 2.999897l0 23.680603c0 1.8052483 -0.035980225 2.9202538 -0.1079483 3.3450203c-0.09159088 0.6017494 -0.222435 1.0265121 -0.39253235 1.274292c-0.23551941 0.37166977 -0.5462723 0.55750275 -0.9322586 0.55750275l-0.44159698 0l0 0.9822655l11.501183 0l0.5986099 -11.442083l-0.36309052 0c-0.3271103 3.185732 -0.8657532 5.557333 -1.615921 7.1148014c-0.74799347 1.5574684 -1.7434998 2.3362007 -2.9865189 2.3362007l-0.7948761 0c-0.37944794 0 -0.6542206 -0.1415863 -0.82431793 -0.42476273c-0.17009735 -0.28317642 -0.28676605 -0.6459961 -0.3500061 -1.088459c-0.061058044 -0.44246292 -0.09159088 -1.6548119 -0.09159088 -3.637043l0 -10.141245c0.6345978 0 1.118721 0.22713089 1.4523697 0.68139267c0.3336563 0.44836235 0.62586975 1.3273869 0.8766556 2.6370773c0.2529602 1.3096886 0.41870117 2.991047 0.49720764 5.044073l0.37290192 0l0 -18.848911l-0.37290192 0c-0.10467529 2.7963648 -0.34674072 4.911336 -0.72618866 6.3449163c-0.3794403 1.4335785 -0.9911423 2.1503677 -1.835083 2.1503677l-0.26496124 0l0 -14.654365l1.3738632 0c1.0074997 0 1.6944275 0.1592865 2.060791 0.4778595c0.62805176 0.5309553 1.113266 1.3627853 1.4556427 2.49549c0.3445511 1.1327038 0.61169434 2.999897 0.8014221 5.6015778l0.37290192 0l0 -10.645653z" fill-rule="evenodd"/><path fill="#000000" d="m113.648674 5.958561l0 0.9822669c0.40560913 0.035397053 0.7163696 0.2035327 0.9322586 0.5044074c0.2158966 0.3008747 0.46450043 0.92917156 0.74581146 1.8848915l0.28458405 0.955719l0 25.406208c0 1.911438 -0.14392853 3.2653732 -0.43178558 4.0618095c-0.28785706 0.7964325 -0.7981491 1.203495 -1.5308685 1.2211952l0 0.9822655l4.720192 0l0 -0.9822655l-0.31402588 0c-0.4514084 0 -0.85266876 -0.36281967 -1.2037659 -1.088459c-0.3489151 -0.72563934 -0.52337646 -2.1238213 -0.52337646 -4.1945457l0 -22.88417l8.998802 29.972424l0.33364868 0l0 -29.972424c0 -1.6990566 0.05342865 -2.896655 0.16028595 -3.5927973c0.10903931 -0.7020397 0.25950623 -1.2064476 0.4514084 -1.5132222c0.1940918 -0.31267405 0.5724411 -0.56635237 1.1350708 -0.7610359l0 -0.9822669l-4.3963547 0l0 0.9822669c0.024642944 -0.0011796951 0.049049377 -0.0017695427 0.0732193 -0.0017695427c0.7009201 0 1.2031631 0.4961481 1.5067215 1.4884443c0.22897339 0.7610359 0.3434677 2.2211628 0.3434677 4.3803806l0 15.477345l-6.5651016 -22.326668z" fill-rule="evenodd"/><path fill="#000000" d="m128.03497 5.958561l0 0.9822669c0.51683044 0.1592865 0.8679199 0.53980446 1.0532837 1.1415544c0.18754578 0.60174847 0.5560913 2.6282282 1.1056366 6.0794373l4.5631866 28.618488l0.32383728 0l4.5828094 -27.503483c0.54299927 -3.2742233 0.95188904 -5.353798 1.2266693 -6.2387238c0.3794403 -1.1858001 0.8112335 -1.884891 1.2953491 -2.0972733l0 -0.9822669l-4.366913 0l0 0.9822669c0.4644928 0 0.83740234 0.15043736 1.1187134 0.45131207c0.20280457 0.21238232 0.35655212 0.5221062 0.46122742 0.92917204c0.10467529 0.4070654 0.15701294 0.87607574 0.15701294 1.407031c0 0.4601612 -0.035980225 1.017664 -0.10795593 1.6725092c-0.07196045 0.6548443 -0.2649536 1.9468355 -0.5789795 3.8759727l-2.629959 15.955206l-2.8360443 -17.919739c-0.3009491 -1.8937407 -0.47758484 -3.0559416 -0.5299225 -3.4866066c-0.052337646 -0.43656254 -0.07850647 -0.8141308 -0.07850647 -1.1327047c0 -0.5132561 0.07524109 -0.90262365 0.22570801 -1.1681013c0.20935059 -0.3893671 0.60188293 -0.58405066 1.177597 -0.58405066l0.2158966 0l0 -0.9822669z" fill-rule="evenodd"/><path fill="#000000" d="m142.79417 5.958561l0 0.9822669l0.44158936 0c0.37290955 0 0.668396 0.17403507 0.8864746 0.5221062c0.22026062 0.34217072 0.36636353 0.74333715 0.43832397 1.2034984c0.07196045 0.4601612 0.10795593 1.6105642 0.10795593 3.451209l0 23.680603c0 1.8052483 -0.035995483 2.9202538 -0.10795593 3.3450203c-0.09158325 0.6017494 -0.22242737 1.0265121 -0.39253235 1.274292c-0.23551941 0.37166977 -0.54626465 0.55750275 -0.93226624 0.55750275l-0.44158936 0l0 0.9822655l6.9576263 0l0 -0.9822655l-0.4416046 0c-0.3728943 0 -0.66947937 -0.17108536 -0.88974 -0.5132561c-0.21806335 -0.34807205 -0.3652649 -0.7521858 -0.44158936 -1.2123489c-0.074142456 -0.4601593 -0.11122131 -1.6105652 -0.11122131 -3.45121l0 -23.680603c0 -1.8052473 0.035980225 -2.9202538 0.10795593 -3.3450174c0.09812927 -0.6017494 0.23223877 -1.026514 0.40234375 -1.274293c0.23551941 -0.37166882 0.54626465 -0.5575032 0.932251 -0.5575032l0.4416046 0l0 -0.9822669z" fill-rule="evenodd"/><path fill="#000000" d="m156.60149 7.8965473c1.053299 0 1.8165436 0.65484524 2.2897644 1.9645348c0.47540283 1.3096895 0.71310425 3.3361683 0.71310425 6.0794373c0 1.8937397 -0.12976074 3.430561 -0.38926697 4.610462c-0.25732422 1.1740017 -0.61169434 1.9881325 -1.0630951 2.4423943c-0.45141602 0.44836235 -1.1318054 0.6725426 -2.0411682 0.6725426l-0.5593567 0l0 -15.769371zm-6.0155487 -1.9379864l0 0.9822669c0.6084137 0 1.0238495 0.15043736 1.2462769 0.45131207c0.22244263 0.3008747 0.37727356 0.70499086 0.46450806 1.2123475c0.089401245 0.5014591 0.1341095 1.725605 0.1341095 3.6724405l0 23.36203c0 1.9468384 -0.044708252 3.1680336 -0.1341095 3.6635933c-0.0872345 0.49555588 -0.24098206 0.89967346 -0.46122742 1.2123489c-0.21807861 0.30677032 -0.6345978 0.4601593 -1.2495575 0.4601593l0 0.9822655l6.810425 0l0 -0.9822655c-0.60842896 0 -1.0238495 -0.1504364 -1.2462921 -0.45131302c-0.22242737 -0.3008728 -0.37835693 -0.7020416 -0.46775818 -1.2034988c-0.0872345 -0.50735855 -0.13084412 -1.7344513 -0.13084412 -3.6812897l0 -10.088148l0.87338257 0l4.2884064 16.406515l4.190277 0l0 -0.9822655c-0.35327148 -0.05309677 -0.664032 -0.35396957 -0.93226624 -0.9026222c-0.17663574 -0.38936996 -0.4743042 -1.3716354 -0.8930054 -2.946804l-3.1991425 -12.185423c0.8112335 -0.54865265 1.4425659 -1.3716335 1.8939667 -2.4689407c0.7065582 -1.7344551 1.059845 -3.9290695 1.059845 -6.583846c0 -2.1769161 -0.23551941 -4.0736055 -0.7065582 -5.69007c-0.47103882 -1.6223621 -1.0794678 -2.7344184 -1.8252716 -3.3361688c-0.7458191 -0.6017494 -1.9234161 -0.90262365 -3.5327911 -0.90262365z" fill-rule="evenodd"/><path fill="#000000" d="m172.60698 7.15321c0.6607666 0 1.2441101 0.48670864 1.7500305 1.4601264c0.5081177 0.97341824 0.9257202 2.6429787 1.2528381 5.0086784c0.32710266 2.3598013 0.49066162 5.9201508 0.49066162 10.681049c0 3.9998627 -0.16027832 7.244589 -0.48085022 9.734179c-0.3205719 2.4836922 -0.7687073 4.291889 -1.3444214 5.424595c-0.45141602 0.88492584 -1.0140381 1.3273888 -1.6878815 1.3273888c-1.0009613 0 -1.77948 -1.026516 -2.3355713 -3.0795403c-0.7981415 -2.937954 -1.1972198 -7.477621 -1.1972198 -13.619003c0 -5.167965 0.2584076 -9.132431 0.7752533 -11.893398c0.6345825 -3.3627167 1.5603027 -5.0440745 2.7771606 -5.0440745zm0.23669434 -1.7170048c-0.116882324 0 -0.23504639 0.005981922 -0.35446167 0.017947674c-0.11022949 -0.011927605 -0.21946716 -0.017891884 -0.3277588 -0.017891884c-1.8197174 0 -3.3645477 1.6843724 -4.634491 5.0531178c-1.343338 3.5633001 -2.0149994 8.017425 -2.0149994 13.362374c0 4.7608986 0.51683044 8.875801 1.5505066 12.3447075c1.3084259 4.3892326 3.1598816 6.583847 5.5543213 6.583847c2.387909 0 4.2360687 -2.300808 5.54451 -6.90242c0.98786926 -3.4689064 1.4818115 -7.4864674 1.4818115 -12.052683c0 -5.3449497 -0.6629486 -9.796124 -1.9888306 -13.353524c-1.2491302 -3.3569841 -2.8526611 -5.0354753 -4.810608 -5.0354753z" fill-rule="evenodd"/><path fill="#000000" d="m180.64407 5.958561l0 0.9822669c0.40560913 0.035397053 0.7163696 0.2035327 0.93226624 0.5044074c0.21588135 0.3008747 0.4644928 0.92917156 0.74580383 1.8848915l0.28459167 0.955719l0 25.406208c0 1.911438 -0.14393616 3.2653732 -0.4317932 4.0618095c-0.28785706 0.7964325 -0.7981415 1.203495 -1.5308685 1.2211952l0 0.9822655l4.7201996 0l0 -0.9822655l-0.31402588 0c-0.45141602 0 -0.8526764 -0.36281967 -1.2037659 -1.088459c-0.34892273 -0.72563934 -0.52337646 -2.1238213 -0.52337646 -4.1945457l0 -22.88417l8.998795 29.972424l0.33364868 0l0 -29.972424c0 -1.6990566 0.05342102 -2.896655 0.16027832 -3.5927973c0.10903931 -0.7020397 0.25950623 -1.2064476 0.45141602 -1.5132222c0.1940918 -0.31267405 0.57244873 -0.56635237 1.1350708 -0.7610359l0 -0.9822669l-4.3963623 0l0 0.9822669c0.024642944 -0.0011796951 0.049057007 -0.0017695427 0.07322693 -0.0017695427c0.70092773 0 1.2031708 0.4961481 1.5067139 1.4884443c0.22898865 0.7610359 0.34347534 2.2211628 0.34347534 4.3803806l0 15.477345l-6.565094 -22.326668z" fill-rule="evenodd"/><path fill="#000000" d="m195.2757 5.958561l0 0.9822669l0.4219818 0c0.3728943 0 0.67056274 0.17403507 0.8930054 0.5221062c0.22242737 0.34217072 0.3696289 0.7403865 0.4416046 1.1946492c0.07196045 0.4483633 0.107940674 1.5840168 0.107940674 3.4069633l0 22.777979c0 1.6105652 -0.0065460205 2.5131874 -0.019622803 2.7078743c-0.07197571 0.8318291 -0.17337036 1.4778252 -0.30421448 1.9379845c-0.13084412 0.46016312 -0.32383728 0.8288803 -0.57899475 1.1061592c-0.23951721 0.25476074 -0.4963379 0.3821411 -0.77046204 0.3821411c-0.017868042 0 -0.035827637 -5.41687E-4 -0.053848267 -0.001625061l-0.13739014 0l0 0.9822655l4.5533752 0l0 -0.9822655c-0.60842896 0 -1.0554657 -0.2772789 -1.341156 -0.8318291c-0.28349304 -0.5604553 -0.46775818 -1.2831421 -0.55281067 -2.168068c-0.032714844 -0.40706635 -0.049072266 -1.4955254 -0.049072266 -3.2653732l0 -25.353115l5.181427 32.60065l0.23551941 0l5.1029205 -32.83958l0 26.6805c0 1.8052483 -0.035980225 2.9202538 -0.10795593 3.3450203c-0.09812927 0.6017494 -0.22897339 1.0265121 -0.39253235 1.274292c-0.23551941 0.37166977 -0.5495453 0.55750275 -0.94207764 0.55750275l-0.43177795 0l0 0.9822655l6.947815 0l0 -0.9822655l-0.43177795 0c-0.37290955 0 -0.670578 -0.17108536 -0.89302063 -0.5132561c-0.22242737 -0.34807205 -0.3696289 -0.7521858 -0.44158936 -1.2123489c-0.07197571 -0.4601593 -0.10795593 -1.6105652 -0.10795593 -3.45121l0 -23.733698c0 -1.78755 0.035980225 -2.8937063 0.10795593 -3.318471c0.09812927 -0.5840502 0.22897339 -0.99996567 0.39253235 -1.2477446c0.23551941 -0.37166882 0.5495453 -0.5575032 0.94207764 -0.5575032l0.43177795 0l0 -0.9822669l-5.4169464 0l-3.6112823 23.7337l-3.7388763 -23.7337z" fill-rule="evenodd"/><path fill="#000000" d="m214.24481 5.958561l0 0.9822669l0.44158936 0c0.4317932 0 0.7719879 0.24777937 1.0205841 0.74333763c0.176651 0.33627176 0.29766846 0.81413126 0.36309814 1.433579c0.032714844 0.37166882 0.049072266 1.3716345 0.049072266 2.999897l0 23.680603c0 1.8052483 -0.035995483 2.9202538 -0.10795593 3.3450203c-0.09158325 0.6017494 -0.22242737 1.0265121 -0.39253235 1.274292c-0.23551941 0.37166977 -0.54626465 0.55750275 -0.93226624 0.55750275l-0.44158936 0l0 0.9822655l11.50119 0l0.5986023 -11.442083l-0.3630829 0c-0.32711792 3.185732 -0.8657532 5.557333 -1.6159363 7.1148014c-0.74798584 1.5574684 -1.7434845 2.3362007 -2.9865112 2.3362007l-0.7948761 0c-0.3794403 0 -0.6542206 -0.1415863 -0.8243103 -0.42476273c-0.17010498 -0.28317642 -0.28677368 -0.6459961 -0.3500061 -1.088459c-0.061065674 -0.44246292 -0.09159851 -1.6548119 -0.09159851 -3.637043l0 -10.141245c0.6345978 0 1.1187134 0.22713089 1.4523773 0.68139267c0.33364868 0.44836235 0.62586975 1.3273869 0.87664795 2.6370773c0.2529602 1.3096886 0.41870117 2.991047 0.49720764 5.044073l0.37290955 0l0 -18.848911l-0.37290955 0c-0.10467529 2.7963648 -0.34674072 4.911336 -0.72618103 6.3449163c-0.37945557 1.4335785 -0.9911499 2.1503677 -1.8350983 2.1503677l-0.2649536 0l0 -14.654365l1.3738708 0c1.0074921 0 1.6944275 0.1592865 2.060791 0.4778595c0.62805176 0.5309553 1.113266 1.3627853 1.4556274 2.49549c0.34455872 1.1327038 0.6117096 2.999897 0.8014221 5.6015778l0.37290955 0l0 -10.645653z" fill-rule="evenodd"/><path fill="#000000" d="m227.53201 5.958561l0 0.9822669c0.4056244 0.035397053 0.7163696 0.2035327 0.93226624 0.5044074c0.2158966 0.3008747 0.4644928 0.92917156 0.7458191 1.8848915l0.28457642 0.955719l0 25.406208c0 1.911438 -0.1439209 3.2653732 -0.43177795 4.0618095c-0.28785706 0.7964325 -0.79815674 1.203495 -1.5308838 1.2211952l0 0.9822655l4.7201996 0l0 -0.9822655l-0.31402588 0c-0.45141602 0 -0.85266113 -0.36281967 -1.2037659 -1.088459c-0.34890747 -0.72563934 -0.52337646 -2.1238213 -0.52337646 -4.1945457l0 -22.88417l8.998795 29.972424l0.33366394 0l0 -29.972424c0 -1.6990566 0.05342102 -2.896655 0.16027832 -3.5927973c0.10903931 -0.7020397 0.25950623 -1.2064476 0.45141602 -1.5132222c0.19407654 -0.31267405 0.5724335 -0.56635237 1.1350708 -0.7610359l0 -0.9822669l-4.3963623 0l0 0.9822669c0.024642944 -0.0011796951 0.049041748 -0.0017695427 0.07321167 -0.0017695427c0.70092773 0 1.2031708 0.4961481 1.5067291 1.4884443c0.22897339 0.7610359 0.34346008 2.2211628 0.34346008 4.3803806l0 15.477345l-6.565094 -22.326668z" fill-rule="evenodd"/><path fill="#000000" d="m259.71964 17.347551l1.9822998 12.397804l-4.023468 0l2.0411682 -12.397804zm-17.232147 -11.38899l0 9.743029l0.37290955 0c0.15046692 -2.6547766 0.5102844 -4.6989536 1.0794525 -6.132533c0.4056244 -1.0265131 1.0565643 -1.5397701 1.9528503 -1.5397701l0.96170044 0l0 27.768959c0 1.8052483 -0.035980225 2.9202538 -0.107940674 3.3450203c-0.09812927 0.6017494 -0.23225403 1.0265121 -0.40234375 1.274292c-0.23551941 0.37166977 -0.5462799 0.55750275 -0.93226624 0.55750275l-0.4416046 0l0 0.9822655l6.967453 0l0 -0.9822655l-0.4416046 0c-0.3794403 0 -0.6792908 -0.17108536 -0.8995514 -0.5132561c-0.21806335 -0.34807205 -0.3652649 -0.7521858 -0.4416046 -1.2123489c-0.074142456 -0.4601593 -0.111206055 -1.6105652 -0.111206055 -3.45121l0 -27.768959l0.99113464 0c0.62150574 0 1.0565643 0.1592865 1.3051758 0.4778595c0.44487 0.58405113 0.7948761 1.3686857 1.0500183 2.3539019c0.2551422 0.97931767 0.48739624 2.5928316 0.6967468 4.840542l0.35327148 0l0 -9.743029zm18.419556 -0.74333763l-4.75943 28.72468c-0.45143127 2.743267 -0.8308716 4.554413 -1.1383514 5.433441c-0.30749512 0.873127 -0.70002747 1.407032 -1.177597 1.6017151l0 0.9822655l4.4257812 0l0 -0.9822655c-0.6934509 -0.1415863 -1.1285095 -0.35396957 -1.3051453 -0.637146c-0.30096436 -0.4778595 -0.45141602 -1.221199 -0.45141602 -2.230011c0 -0.7610359 0.09158325 -1.725605 0.27478027 -2.8937073l0.5593567 -3.504305l4.7005615 0l0.70654297 4.4865704c0.18319702 1.1681023 0.28131104 1.8317986 0.29440308 1.991085c0.039245605 0.33626938 0.058898926 0.6636925 0.058898926 0.9822655c0 0.53095627 -0.07199097 0.9380226 -0.21591187 1.221199c-0.20935059 0.38936615 -0.57244873 0.5840492 -1.0892639 0.5840492l-0.2649536 0l0 0.9822655l6.4375 0l0 -0.9822655c-0.40560913 -0.08849335 -0.719635 -0.40706635 -0.94207764 -0.955719c-0.29437256 -0.72563934 -0.67056274 -2.486641 -1.1285095 -5.2830048l-4.798706 -29.521112z" fill-rule="evenodd"/><path fill="#000000" d="m268.56143 5.958561l0 0.9822669l0.44158936 0c0.3728943 0 0.668396 0.17403507 0.8864746 0.5221062c0.22024536 0.34217072 0.36636353 0.74333715 0.43832397 1.2034984c0.07196045 0.4601612 0.107940674 1.6105642 0.107940674 3.451209l0 23.680603c0 1.8052483 -0.035980225 2.9202538 -0.107940674 3.3450203c-0.09158325 0.6017494 -0.22244263 1.0265121 -0.3925476 1.274292c-0.23550415 0.37166977 -0.54626465 0.55750275 -0.932251 0.55750275l-0.44158936 0l0 0.9822655l11.815216 0l0.50045776 -12.636734l-0.40234375 0c-0.3074646 2.8317604 -0.6334839 4.973282 -0.97805786 6.4245605c-0.3423767 1.4512749 -0.7490845 2.5131874 -1.2201233 3.18573c-0.47103882 0.6725426 -1.0598145 1.0088158 -1.7663879 1.0088158l-1.1088867 0c-0.62805176 0 -1.0238647 -0.07964325 -1.1874084 -0.23892975c-0.2290039 -0.24777985 -0.38272095 -0.6223984 -0.46124268 -1.1238556c-0.07849121 -0.50735855 -0.117767334 -1.6813583 -0.117767334 -3.5220032l0 -22.937267c0 -1.8052473 0.035980225 -2.9202538 0.10797119 -3.3450174c0.09811401 -0.6017494 0.23223877 -1.026514 0.40234375 -1.274293c0.23550415 -0.37166882 0.54626465 -0.5575032 0.932251 -0.5575032l0.5789795 0l0 -0.9822669z" fill-rule="evenodd"/><path stroke="#000000" stroke-width="1.0" stroke-linejoin="round" stroke-linecap="butt" d="m13.131039 7.8965473c1.0532942 0 1.8165464 0.65484524 2.2897701 1.9645348c0.4753952 1.3096895 0.7130985 3.3361683 0.7130985 6.0794373c0 1.8937397 -0.12975693 3.430561 -0.3892603 4.610462c-0.2573309 1.1740017 -0.6116953 1.9881325 -1.0631075 2.4423943c-0.45141125 0.44836235 -1.1318007 0.6725426 -2.0411663 0.6725426l-0.55935764 0l0 -15.769371zm-6.015553 -1.9379864l0 0.9822669c0.60842466 0 1.0238538 0.15043736 1.2462888 0.45131207c0.222435 0.3008747 0.37726307 0.70499086 0.4644966 1.2123475c0.08940601 0.5014591 0.13411522 1.725605 0.13411522 3.6724405l0 23.36203c0 1.9468384 -0.044709206 3.1680336 -0.13411522 3.6635933c-0.08723354 0.49555588 -0.24097538 0.89967346 -0.4612255 1.2123489c-0.21807766 0.30677032 -0.634593 0.4601593 -1.2495599 0.4601593l0 0.9822655l6.81043 0l0 -0.9822655c-0.6084242 0 -1.0238543 -0.1504364 -1.2462893 -0.45131302c-0.222435 -0.3008728 -0.3783617 -0.7020416 -0.46776676 -1.2034988c-0.08723354 -0.50735855 -0.13084412 -1.7344513 -0.13084412 -3.6812897l0 -10.088148l0.8733835 0l4.288412 16.406515l4.190279 0l0 -0.9822655c-0.3532791 -0.05309677 -0.6640339 -0.35396957 -0.9322643 -0.9026222c-0.17663765 -0.38936996 -0.474308 -1.3716354 -0.8930092 -2.946804l-3.1991367 -12.185423c0.8112335 -0.54865265 1.4425564 -1.3716335 1.8939667 -2.4689407c0.7065582 -1.7344551 1.0598373 -3.9290695 1.0598373 -6.583846c0 -2.1769161 -0.23551941 -4.0736055 -0.7065582 -5.69007c-0.4710369 -1.6223621 -1.079462 -2.7344184 -1.8252735 -3.3361688c-0.74580956 -0.6017494 -1.9234066 -0.90262365 -3.5327873 -0.90262365z" fill-rule="evenodd"/><path stroke="#000000" stroke-width="1.0" stroke-linejoin="round" stroke-linecap="butt" d="m29.13653 7.15321c0.6607628 0 1.2441044 0.48670864 1.75004 1.4601264c0.50810623 0.97341824 0.9257202 2.6429787 1.2528305 5.0086784c0.3271103 2.3598013 0.49066544 5.9201508 0.49066544 10.681049c0 3.9998627 -0.16028595 7.244589 -0.48085022 9.734179c-0.32057 2.4836922 -0.7687111 4.291889 -1.3444233 5.424595c-0.4514122 0.88492584 -1.0140419 1.3273888 -1.6878891 1.3273888c-1.0009556 0 -1.7794781 -1.026516 -2.3355637 -3.0795403c-0.7981491 -2.937954 -1.1972237 -7.477621 -1.1972237 -13.619003c0 -5.167965 0.25841713 -9.132431 0.7752514 -11.893398c0.63459206 -3.3627167 1.5603142 -5.0440745 2.7771626 -5.0440745zm0.23670769 -1.7170048c-0.11688995 0 -0.23504639 0.005981922 -0.35446548 0.017947674c-0.110235214 -0.011927605 -0.21948433 -0.017891884 -0.3277626 -0.017891884c-1.8197155 0 -3.364544 1.6843724 -4.6344967 5.0531178c-1.3433361 3.5633001 -2.0149975 8.017425 -2.0149975 13.362374c0 4.7608986 0.51683426 8.875801 1.5505009 12.3447075c1.3084393 4.3892326 3.1598835 6.583847 5.554327 6.583847c2.3879032 0 4.2360764 -2.300808 5.5445137 -6.90242c0.9878731 -3.4689064 1.4818115 -7.4864674 1.4818115 -12.052683c0 -5.3449497 -0.6629486 -9.796124 -1.9888306 -13.353524c-1.2491379 -3.3569841 -2.8526669 -5.0354753 -4.8106003 -5.0354753z" fill-rule="evenodd"/><path stroke="#000000" stroke-width="1.0" stroke-linejoin="round" stroke-linecap="butt" d="m37.29138 5.958561l0 0.9822669l0.42197418 0c0.37290573 0 0.6705742 0.17403507 0.8930092 0.5221062c0.222435 0.34217072 0.36963272 0.7403865 0.44159698 1.1946492c0.071964264 0.4483633 0.1079483 1.5840168 0.1079483 3.4069633l0 22.777979c0 1.6105652 -0.006542206 2.5131874 -0.019626617 2.7078743c-0.071964264 0.8318291 -0.17337036 1.4778252 -0.30421448 1.9379845c-0.13084412 0.46016312 -0.32383728 0.8288803 -0.5789833 1.1061592c-0.23952484 0.25476074 -0.49634552 0.3821411 -0.77046585 0.3821411c-0.017875671 0 -0.035827637 -5.41687E-4 -0.05385208 -0.001625061l-0.13738632 0l0 0.9822655l4.5533714 0l0 -0.9822655c-0.60842514 0 -1.0554733 -0.2772789 -1.3411484 -0.8318291c-0.28349304 -0.5604553 -0.46776962 -1.2831421 -0.5528183 -2.168068c-0.03271103 -0.40706635 -0.049064636 -1.4955254 -0.049064636 -3.2653732l0 -25.353115l5.181423 32.60065l0.2355156 0l5.1029167 -32.83958l0 26.6805c0 1.8052483 -0.035980225 2.9202538 -0.10794449 3.3450203c-0.09813309 0.6017494 -0.2289772 1.0265121 -0.39253235 1.274292c-0.23551941 0.37166977 -0.5495453 0.55750275 -0.94207764 0.55750275l-0.43178558 0l0 0.9822655l6.9478188 0l0 -0.9822655l-0.43178558 0c-0.37290573 0 -0.670578 -0.17108536 -0.893013 -0.5132561c-0.222435 -0.34807205 -0.36963272 -0.7521858 -0.44159698 -1.2123489c-0.071964264 -0.4601593 -0.10794449 -1.6105652 -0.10794449 -3.45121l0 -23.733698c0 -1.78755 0.035980225 -2.8937063 0.10794449 -3.318471c0.09813309 -0.5840502 0.2289772 -0.99996567 0.39253235 -1.2477446c0.23551941 -0.37166882 0.5495453 -0.5575032 0.94207764 -0.5575032l0.43178558 0l0 -0.9822669l-5.4169426 0l-3.6112938 23.7337l-3.7388687 -23.7337z" fill-rule="evenodd"/><path stroke="#000000" stroke-width="1.0" stroke-linejoin="round" stroke-linecap="butt" d="m61.90314 17.347551l1.9822845 12.397804l-4.0234528 0l2.0411682 -12.397804zm1.1874084 -12.132328l-4.759453 28.72468c-0.4514084 2.743267 -0.8308563 4.554413 -1.13834 5.433441c-0.30748367 0.873127 -0.700016 1.407032 -1.177597 1.6017151l0 0.9822655l4.4257965 0l0 -0.9822655c-0.69347 -0.1415863 -1.1285286 -0.35396957 -1.3051682 -0.637146c-0.30094147 -0.4778595 -0.4514122 -1.221199 -0.4514122 -2.230011c0 -0.7610359 0.09159088 -1.725605 0.27477264 -2.8937073l0.5593605 -3.504305l4.700569 0l0.7065582 4.4865704c0.18318176 1.1681023 0.28131104 1.8317986 0.29439545 1.991085c0.039253235 0.33626938 0.058883667 0.6636925 0.058883667 0.9822655c0 0.53095627 -0.07196808 0.9380226 -0.2158966 1.221199c-0.20935059 0.38936615 -0.5724411 0.5840492 -1.0892715 0.5840492l-0.26496124 0l0 0.9822655l6.437523 0l0 -0.9822655c-0.40561676 -0.08849335 -0.71964264 -0.40706635 -0.94207764 -0.955719c-0.29439545 -0.72563934 -0.6705704 -2.486641 -1.1285248 -5.2830048l-4.798706 -29.521112z" fill-rule="evenodd"/><path stroke="#000000" stroke-width="1.0" stroke-linejoin="round" stroke-linecap="butt" d="m70.6566 5.958561l0 0.9822669c0.40561676 0.035397053 0.7163696 0.2035327 0.93226624 0.5044074c0.21588898 0.3008747 0.4644928 0.92917156 0.74581146 1.8848915l0.28458405 0.955719l0 25.406208c0 1.911438 -0.14392853 3.2653732 -0.43178558 4.0618095c-0.28785706 0.7964325 -0.7981491 1.203495 -1.5308762 1.2211952l0 0.9822655l4.7201996 0l0 -0.9822655l-0.31402588 0c-0.4514084 0 -0.85266113 -0.36281967 -1.2037659 -1.088459c-0.3489151 -0.72563934 -0.52337646 -2.1238213 -0.52337646 -4.1945457l0 -22.88417l8.998795 29.972424l0.3336563 0l0 -29.972424c0 -1.6990566 0.05342865 -2.896655 0.16028595 -3.5927973c0.10903931 -0.7020397 0.25950623 -1.2064476 0.4514084 -1.5132222c0.19408417 -0.31267405 0.5724411 -0.56635237 1.1350708 -0.7610359l0 -0.9822669l-4.3963547 0l0 0.9822669c0.024642944 -0.0011796951 0.049041748 -0.0017695427 0.07321167 -0.0017695427c0.70092773 0 1.2031708 0.4961481 1.5067291 1.4884443c0.22897339 0.7610359 0.34346008 2.2211628 0.34346008 4.3803806l0 15.477345l-6.565094 -22.326668z" fill-rule="evenodd"/><path stroke="#000000" stroke-width="1.0" stroke-linejoin="round" stroke-linecap="butt" d="m100.361465 5.958561l0 0.9822669l0.44159698 0c0.43178558 0 0.7719803 0.24777937 1.0205841 0.74333763c0.17663574 0.33627176 0.29766846 0.81413126 0.36309052 1.433579c0.032707214 0.37166882 0.049064636 1.3716345 0.049064636 2.999897l0 23.680603c0 1.8052483 -0.035980225 2.9202538 -0.1079483 3.3450203c-0.09159088 0.6017494 -0.222435 1.0265121 -0.39253235 1.274292c-0.23551941 0.37166977 -0.5462723 0.55750275 -0.9322586 0.55750275l-0.44159698 0l0 0.9822655l11.501183 0l0.5986099 -11.442083l-0.36309052 0c-0.3271103 3.185732 -0.8657532 5.557333 -1.615921 7.1148014c-0.74799347 1.5574684 -1.7434998 2.3362007 -2.9865189 2.3362007l-0.7948761 0c-0.37944794 0 -0.6542206 -0.1415863 -0.82431793 -0.42476273c-0.17009735 -0.28317642 -0.28676605 -0.6459961 -0.3500061 -1.088459c-0.061058044 -0.44246292 -0.09159088 -1.6548119 -0.09159088 -3.637043l0 -10.141245c0.6345978 0 1.118721 0.22713089 1.4523697 0.68139267c0.3336563 0.44836235 0.62586975 1.3273869 0.8766556 2.6370773c0.2529602 1.3096886 0.41870117 2.991047 0.49720764 5.044073l0.37290192 0l0 -18.848911l-0.37290192 0c-0.10467529 2.7963648 -0.34674072 4.911336 -0.72618866 6.3449163c-0.3794403 1.4335785 -0.9911423 2.1503677 -1.835083 2.1503677l-0.26496124 0l0 -14.654365l1.3738632 0c1.0074997 0 1.6944275 0.1592865 2.060791 0.4778595c0.62805176 0.5309553 1.113266 1.3627853 1.4556427 2.49549c0.3445511 1.1327038 0.61169434 2.999897 0.8014221 5.6015778l0.37290192 0l0 -10.645653z" fill-rule="evenodd"/><path stroke="#000000" stroke-width="1.0" stroke-linejoin="round" stroke-linecap="butt" d="m113.648674 5.958561l0 0.9822669c0.40560913 0.035397053 0.7163696 0.2035327 0.9322586 0.5044074c0.2158966 0.3008747 0.46450043 0.92917156 0.74581146 1.8848915l0.28458405 0.955719l0 25.406208c0 1.911438 -0.14392853 3.2653732 -0.43178558 4.0618095c-0.28785706 0.7964325 -0.7981491 1.203495 -1.5308685 1.2211952l0 0.9822655l4.720192 0l0 -0.9822655l-0.31402588 0c-0.4514084 0 -0.85266876 -0.36281967 -1.2037659 -1.088459c-0.3489151 -0.72563934 -0.52337646 -2.1238213 -0.52337646 -4.1945457l0 -22.88417l8.998802 29.972424l0.33364868 0l0 -29.972424c0 -1.6990566 0.05342865 -2.896655 0.16028595 -3.5927973c0.10903931 -0.7020397 0.25950623 -1.2064476 0.4514084 -1.5132222c0.1940918 -0.31267405 0.5724411 -0.56635237 1.1350708 -0.7610359l0 -0.9822669l-4.3963547 0l0 0.9822669c0.024642944 -0.0011796951 0.049049377 -0.0017695427 0.0732193 -0.0017695427c0.7009201 0 1.2031631 0.4961481 1.5067215 1.4884443c0.22897339 0.7610359 0.3434677 2.2211628 0.3434677 4.3803806l0 15.477345l-6.5651016 -22.326668z" fill-rule="evenodd"/><path stroke="#000000" stroke-width="1.0" stroke-linejoin="round" stroke-linecap="butt" d="m128.03497 5.958561l0 0.9822669c0.51683044 0.1592865 0.8679199 0.53980446 1.0532837 1.1415544c0.18754578 0.60174847 0.5560913 2.6282282 1.1056366 6.0794373l4.5631866 28.618488l0.32383728 0l4.5828094 -27.503483c0.54299927 -3.2742233 0.95188904 -5.353798 1.2266693 -6.2387238c0.3794403 -1.1858001 0.8112335 -1.884891 1.2953491 -2.0972733l0 -0.9822669l-4.366913 0l0 0.9822669c0.4644928 0 0.83740234 0.15043736 1.1187134 0.45131207c0.20280457 0.21238232 0.35655212 0.5221062 0.46122742 0.92917204c0.10467529 0.4070654 0.15701294 0.87607574 0.15701294 1.407031c0 0.4601612 -0.035980225 1.017664 -0.10795593 1.6725092c-0.07196045 0.6548443 -0.2649536 1.9468355 -0.5789795 3.8759727l-2.629959 15.955206l-2.8360443 -17.919739c-0.3009491 -1.8937407 -0.47758484 -3.0559416 -0.5299225 -3.4866066c-0.052337646 -0.43656254 -0.07850647 -0.8141308 -0.07850647 -1.1327047c0 -0.5132561 0.07524109 -0.90262365 0.22570801 -1.1681013c0.20935059 -0.3893671 0.60188293 -0.58405066 1.177597 -0.58405066l0.2158966 0l0 -0.9822669z" fill-rule="evenodd"/><path stroke="#000000" stroke-width="1.0" stroke-linejoin="round" stroke-linecap="butt" d="m142.79417 5.958561l0 0.9822669l0.44158936 0c0.37290955 0 0.668396 0.17403507 0.8864746 0.5221062c0.22026062 0.34217072 0.36636353 0.74333715 0.43832397 1.2034984c0.07196045 0.4601612 0.10795593 1.6105642 0.10795593 3.451209l0 23.680603c0 1.8052483 -0.035995483 2.9202538 -0.10795593 3.3450203c-0.09158325 0.6017494 -0.22242737 1.0265121 -0.39253235 1.274292c-0.23551941 0.37166977 -0.54626465 0.55750275 -0.93226624 0.55750275l-0.44158936 0l0 0.9822655l6.9576263 0l0 -0.9822655l-0.4416046 0c-0.3728943 0 -0.66947937 -0.17108536 -0.88974 -0.5132561c-0.21806335 -0.34807205 -0.3652649 -0.7521858 -0.44158936 -1.2123489c-0.074142456 -0.4601593 -0.11122131 -1.6105652 -0.11122131 -3.45121l0 -23.680603c0 -1.8052473 0.035980225 -2.9202538 0.10795593 -3.3450174c0.09812927 -0.6017494 0.23223877 -1.026514 0.40234375 -1.274293c0.23551941 -0.37166882 0.54626465 -0.5575032 0.932251 -0.5575032l0.4416046 0l0 -0.9822669z" fill-rule="evenodd"/><path stroke="#000000" stroke-width="1.0" stroke-linejoin="round" stroke-linecap="butt" d="m156.60149 7.8965473c1.053299 0 1.8165436 0.65484524 2.2897644 1.9645348c0.47540283 1.3096895 0.71310425 3.3361683 0.71310425 6.0794373c0 1.8937397 -0.12976074 3.430561 -0.38926697 4.610462c-0.25732422 1.1740017 -0.61169434 1.9881325 -1.0630951 2.4423943c-0.45141602 0.44836235 -1.1318054 0.6725426 -2.0411682 0.6725426l-0.5593567 0l0 -15.769371zm-6.0155487 -1.9379864l0 0.9822669c0.6084137 0 1.0238495 0.15043736 1.2462769 0.45131207c0.22244263 0.3008747 0.37727356 0.70499086 0.46450806 1.2123475c0.089401245 0.5014591 0.1341095 1.725605 0.1341095 3.6724405l0 23.36203c0 1.9468384 -0.044708252 3.1680336 -0.1341095 3.6635933c-0.0872345 0.49555588 -0.24098206 0.89967346 -0.46122742 1.2123489c-0.21807861 0.30677032 -0.6345978 0.4601593 -1.2495575 0.4601593l0 0.9822655l6.810425 0l0 -0.9822655c-0.60842896 0 -1.0238495 -0.1504364 -1.2462921 -0.45131302c-0.22242737 -0.3008728 -0.37835693 -0.7020416 -0.46775818 -1.2034988c-0.0872345 -0.50735855 -0.13084412 -1.7344513 -0.13084412 -3.6812897l0 -10.088148l0.87338257 0l4.2884064 16.406515l4.190277 0l0 -0.9822655c-0.35327148 -0.05309677 -0.664032 -0.35396957 -0.93226624 -0.9026222c-0.17663574 -0.38936996 -0.4743042 -1.3716354 -0.8930054 -2.946804l-3.1991425 -12.185423c0.8112335 -0.54865265 1.4425659 -1.3716335 1.8939667 -2.4689407c0.7065582 -1.7344551 1.059845 -3.9290695 1.059845 -6.583846c0 -2.1769161 -0.23551941 -4.0736055 -0.7065582 -5.69007c-0.47103882 -1.6223621 -1.0794678 -2.7344184 -1.8252716 -3.3361688c-0.7458191 -0.6017494 -1.9234161 -0.90262365 -3.5327911 -0.90262365z" fill-rule="evenodd"/><path stroke="#000000" stroke-width="1.0" stroke-linejoin="round" stroke-linecap="butt" d="m172.60698 7.15321c0.6607666 0 1.2441101 0.48670864 1.7500305 1.4601264c0.5081177 0.97341824 0.9257202 2.6429787 1.2528381 5.0086784c0.32710266 2.3598013 0.49066162 5.9201508 0.49066162 10.681049c0 3.9998627 -0.16027832 7.244589 -0.48085022 9.734179c-0.3205719 2.4836922 -0.7687073 4.291889 -1.3444214 5.424595c-0.45141602 0.88492584 -1.0140381 1.3273888 -1.6878815 1.3273888c-1.0009613 0 -1.77948 -1.026516 -2.3355713 -3.0795403c-0.7981415 -2.937954 -1.1972198 -7.477621 -1.1972198 -13.619003c0 -5.167965 0.2584076 -9.132431 0.7752533 -11.893398c0.6345825 -3.3627167 1.5603027 -5.0440745 2.7771606 -5.0440745zm0.23669434 -1.7170048c-0.116882324 0 -0.23504639 0.005981922 -0.35446167 0.017947674c-0.11022949 -0.011927605 -0.21946716 -0.017891884 -0.3277588 -0.017891884c-1.8197174 0 -3.3645477 1.6843724 -4.634491 5.0531178c-1.343338 3.5633001 -2.0149994 8.017425 -2.0149994 13.362374c0 4.7608986 0.51683044 8.875801 1.5505066 12.3447075c1.3084259 4.3892326 3.1598816 6.583847 5.5543213 6.583847c2.387909 0 4.2360687 -2.300808 5.54451 -6.90242c0.98786926 -3.4689064 1.4818115 -7.4864674 1.4818115 -12.052683c0 -5.3449497 -0.6629486 -9.796124 -1.9888306 -13.353524c-1.2491302 -3.3569841 -2.8526611 -5.0354753 -4.810608 -5.0354753z" fill-rule="evenodd"/><path stroke="#000000" stroke-width="1.0" stroke-linejoin="round" stroke-linecap="butt" d="m180.64407 5.958561l0 0.9822669c0.40560913 0.035397053 0.7163696 0.2035327 0.93226624 0.5044074c0.21588135 0.3008747 0.4644928 0.92917156 0.74580383 1.8848915l0.28459167 0.955719l0 25.406208c0 1.911438 -0.14393616 3.2653732 -0.4317932 4.0618095c-0.28785706 0.7964325 -0.7981415 1.203495 -1.5308685 1.2211952l0 0.9822655l4.7201996 0l0 -0.9822655l-0.31402588 0c-0.45141602 0 -0.8526764 -0.36281967 -1.2037659 -1.088459c-0.34892273 -0.72563934 -0.52337646 -2.1238213 -0.52337646 -4.1945457l0 -22.88417l8.998795 29.972424l0.33364868 0l0 -29.972424c0 -1.6990566 0.05342102 -2.896655 0.16027832 -3.5927973c0.10903931 -0.7020397 0.25950623 -1.2064476 0.45141602 -1.5132222c0.1940918 -0.31267405 0.57244873 -0.56635237 1.1350708 -0.7610359l0 -0.9822669l-4.3963623 0l0 0.9822669c0.024642944 -0.0011796951 0.049057007 -0.0017695427 0.07322693 -0.0017695427c0.70092773 0 1.2031708 0.4961481 1.5067139 1.4884443c0.22898865 0.7610359 0.34347534 2.2211628 0.34347534 4.3803806l0 15.477345l-6.565094 -22.326668z" fill-rule="evenodd"/><path stroke="#000000" stroke-width="1.0" stroke-linejoin="round" stroke-linecap="butt" d="m195.2757 5.958561l0 0.9822669l0.4219818 0c0.3728943 0 0.67056274 0.17403507 0.8930054 0.5221062c0.22242737 0.34217072 0.3696289 0.7403865 0.4416046 1.1946492c0.07196045 0.4483633 0.107940674 1.5840168 0.107940674 3.4069633l0 22.777979c0 1.6105652 -0.0065460205 2.5131874 -0.019622803 2.7078743c-0.07197571 0.8318291 -0.17337036 1.4778252 -0.30421448 1.9379845c-0.13084412 0.46016312 -0.32383728 0.8288803 -0.57899475 1.1061592c-0.23951721 0.25476074 -0.4963379 0.3821411 -0.77046204 0.3821411c-0.017868042 0 -0.035827637 -5.41687E-4 -0.053848267 -0.001625061l-0.13739014 0l0 0.9822655l4.5533752 0l0 -0.9822655c-0.60842896 0 -1.0554657 -0.2772789 -1.341156 -0.8318291c-0.28349304 -0.5604553 -0.46775818 -1.2831421 -0.55281067 -2.168068c-0.032714844 -0.40706635 -0.049072266 -1.4955254 -0.049072266 -3.2653732l0 -25.353115l5.181427 32.60065l0.23551941 0l5.1029205 -32.83958l0 26.6805c0 1.8052483 -0.035980225 2.9202538 -0.10795593 3.3450203c-0.09812927 0.6017494 -0.22897339 1.0265121 -0.39253235 1.274292c-0.23551941 0.37166977 -0.5495453 0.55750275 -0.94207764 0.55750275l-0.43177795 0l0 0.9822655l6.947815 0l0 -0.9822655l-0.43177795 0c-0.37290955 0 -0.670578 -0.17108536 -0.89302063 -0.5132561c-0.22242737 -0.34807205 -0.3696289 -0.7521858 -0.44158936 -1.2123489c-0.07197571 -0.4601593 -0.10795593 -1.6105652 -0.10795593 -3.45121l0 -23.733698c0 -1.78755 0.035980225 -2.8937063 0.10795593 -3.318471c0.09812927 -0.5840502 0.22897339 -0.99996567 0.39253235 -1.2477446c0.23551941 -0.37166882 0.5495453 -0.5575032 0.94207764 -0.5575032l0.43177795 0l0 -0.9822669l-5.4169464 0l-3.6112823 23.7337l-3.7388763 -23.7337z" fill-rule="evenodd"/><path stroke="#000000" stroke-width="1.0" stroke-linejoin="round" stroke-linecap="butt" d="m214.24481 5.958561l0 0.9822669l0.44158936 0c0.4317932 0 0.7719879 0.24777937 1.0205841 0.74333763c0.176651 0.33627176 0.29766846 0.81413126 0.36309814 1.433579c0.032714844 0.37166882 0.049072266 1.3716345 0.049072266 2.999897l0 23.680603c0 1.8052483 -0.035995483 2.9202538 -0.10795593 3.3450203c-0.09158325 0.6017494 -0.22242737 1.0265121 -0.39253235 1.274292c-0.23551941 0.37166977 -0.54626465 0.55750275 -0.93226624 0.55750275l-0.44158936 0l0 0.9822655l11.50119 0l0.5986023 -11.442083l-0.3630829 0c-0.32711792 3.185732 -0.8657532 5.557333 -1.6159363 7.1148014c-0.74798584 1.5574684 -1.7434845 2.3362007 -2.9865112 2.3362007l-0.7948761 0c-0.3794403 0 -0.6542206 -0.1415863 -0.8243103 -0.42476273c-0.17010498 -0.28317642 -0.28677368 -0.6459961 -0.3500061 -1.088459c-0.061065674 -0.44246292 -0.09159851 -1.6548119 -0.09159851 -3.637043l0 -10.141245c0.6345978 0 1.1187134 0.22713089 1.4523773 0.68139267c0.33364868 0.44836235 0.62586975 1.3273869 0.87664795 2.6370773c0.2529602 1.3096886 0.41870117 2.991047 0.49720764 5.044073l0.37290955 0l0 -18.848911l-0.37290955 0c-0.10467529 2.7963648 -0.34674072 4.911336 -0.72618103 6.3449163c-0.37945557 1.4335785 -0.9911499 2.1503677 -1.8350983 2.1503677l-0.2649536 0l0 -14.654365l1.3738708 0c1.0074921 0 1.6944275 0.1592865 2.060791 0.4778595c0.62805176 0.5309553 1.113266 1.3627853 1.4556274 2.49549c0.34455872 1.1327038 0.6117096 2.999897 0.8014221 5.6015778l0.37290955 0l0 -10.645653z" fill-rule="evenodd"/><path stroke="#000000" stroke-width="1.0" stroke-linejoin="round" stroke-linecap="butt" d="m227.53201 5.958561l0 0.9822669c0.4056244 0.035397053 0.7163696 0.2035327 0.93226624 0.5044074c0.2158966 0.3008747 0.4644928 0.92917156 0.7458191 1.8848915l0.28457642 0.955719l0 25.406208c0 1.911438 -0.1439209 3.2653732 -0.43177795 4.0618095c-0.28785706 0.7964325 -0.79815674 1.203495 -1.5308838 1.2211952l0 0.9822655l4.7201996 0l0 -0.9822655l-0.31402588 0c-0.45141602 0 -0.85266113 -0.36281967 -1.2037659 -1.088459c-0.34890747 -0.72563934 -0.52337646 -2.1238213 -0.52337646 -4.1945457l0 -22.88417l8.998795 29.972424l0.33366394 0l0 -29.972424c0 -1.6990566 0.05342102 -2.896655 0.16027832 -3.5927973c0.10903931 -0.7020397 0.25950623 -1.2064476 0.45141602 -1.5132222c0.19407654 -0.31267405 0.5724335 -0.56635237 1.1350708 -0.7610359l0 -0.9822669l-4.3963623 0l0 0.9822669c0.024642944 -0.0011796951 0.049041748 -0.0017695427 0.07321167 -0.0017695427c0.70092773 0 1.2031708 0.4961481 1.5067291 1.4884443c0.22897339 0.7610359 0.34346008 2.2211628 0.34346008 4.3803806l0 15.477345l-6.565094 -22.326668z" fill-rule="evenodd"/><path stroke="#000000" stroke-width="1.0" stroke-linejoin="round" stroke-linecap="butt" d="m259.71964 17.347551l1.9822998 12.397804l-4.023468 0l2.0411682 -12.397804zm-17.232147 -11.38899l0 9.743029l0.37290955 0c0.15046692 -2.6547766 0.5102844 -4.6989536 1.0794525 -6.132533c0.4056244 -1.0265131 1.0565643 -1.5397701 1.9528503 -1.5397701l0.96170044 0l0 27.768959c0 1.8052483 -0.035980225 2.9202538 -0.107940674 3.3450203c-0.09812927 0.6017494 -0.23225403 1.0265121 -0.40234375 1.274292c-0.23551941 0.37166977 -0.5462799 0.55750275 -0.93226624 0.55750275l-0.4416046 0l0 0.9822655l6.967453 0l0 -0.9822655l-0.4416046 0c-0.3794403 0 -0.6792908 -0.17108536 -0.8995514 -0.5132561c-0.21806335 -0.34807205 -0.3652649 -0.7521858 -0.4416046 -1.2123489c-0.074142456 -0.4601593 -0.111206055 -1.6105652 -0.111206055 -3.45121l0 -27.768959l0.99113464 0c0.62150574 0 1.0565643 0.1592865 1.3051758 0.4778595c0.44487 0.58405113 0.7948761 1.3686857 1.0500183 2.3539019c0.2551422 0.97931767 0.48739624 2.5928316 0.6967468 4.840542l0.35327148 0l0 -9.743029zm18.419556 -0.74333763l-4.75943 28.72468c-0.45143127 2.743267 -0.8308716 4.554413 -1.1383514 5.433441c-0.30749512 0.873127 -0.70002747 1.407032 -1.177597 1.6017151l0 0.9822655l4.4257812 0l0 -0.9822655c-0.6934509 -0.1415863 -1.1285095 -0.35396957 -1.3051453 -0.637146c-0.30096436 -0.4778595 -0.45141602 -1.221199 -0.45141602 -2.230011c0 -0.7610359 0.09158325 -1.725605 0.27478027 -2.8937073l0.5593567 -3.504305l4.7005615 0l0.70654297 4.4865704c0.18319702 1.1681023 0.28131104 1.8317986 0.29440308 1.991085c0.039245605 0.33626938 0.058898926 0.6636925 0.058898926 0.9822655c0 0.53095627 -0.07199097 0.9380226 -0.21591187 1.221199c-0.20935059 0.38936615 -0.57244873 0.5840492 -1.0892639 0.5840492l-0.2649536 0l0 0.9822655l6.4375 0l0 -0.9822655c-0.40560913 -0.08849335 -0.719635 -0.40706635 -0.94207764 -0.955719c-0.29437256 -0.72563934 -0.67056274 -2.486641 -1.1285095 -5.2830048l-4.798706 -29.521112z" fill-rule="evenodd"/><path stroke="#000000" stroke-width="1.0" stroke-linejoin="round" stroke-linecap="butt" d="m268.56143 5.958561l0 0.9822669l0.44158936 0c0.3728943 0 0.668396 0.17403507 0.8864746 0.5221062c0.22024536 0.34217072 0.36636353 0.74333715 0.43832397 1.2034984c0.07196045 0.4601612 0.107940674 1.6105642 0.107940674 3.451209l0 23.680603c0 1.8052483 -0.035980225 2.9202538 -0.107940674 3.3450203c-0.09158325 0.6017494 -0.22244263 1.0265121 -0.3925476 1.274292c-0.23550415 0.37166977 -0.54626465 0.55750275 -0.932251 0.55750275l-0.44158936 0l0 0.9822655l11.815216 0l0.50045776 -12.636734l-0.40234375 0c-0.3074646 2.8317604 -0.6334839 4.973282 -0.97805786 6.4245605c-0.3423767 1.4512749 -0.7490845 2.5131874 -1.2201233 3.18573c-0.47103882 0.6725426 -1.0598145 1.0088158 -1.7663879 1.0088158l-1.1088867 0c-0.62805176 0 -1.0238647 -0.07964325 -1.1874084 -0.23892975c-0.2290039 -0.24777985 -0.38272095 -0.6223984 -0.46124268 -1.1238556c-0.07849121 -0.50735855 -0.117767334 -1.6813583 -0.117767334 -3.5220032l0 -22.937267c0 -1.8052473 0.035980225 -2.9202538 0.10797119 -3.3450174c0.09811401 -0.6017494 0.23223877 -1.026514 0.40234375 -1.274293c0.23550415 -0.37166882 0.54626465 -0.5575032 0.932251 -0.5575032l0.5789795 0l0 -0.9822669z" fill-rule="evenodd"/></g></svg>