<svg version="1.1" viewBox="0.0 0.0 192.0 48.0" fill="none" stroke="none" stroke-linecap="square" stroke-miterlimit="10" xmlns:xlink="http://www.w3.org/1999/xlink" xmlns="http://www.w3.org/2000/svg"><clipPath id="p.0"><path d="m0 0l192.0 0l0 48.0l-192.0 0l0 -48.0z" clip-rule="nonzero"/></clipPath><g clip-path="url(#p.0)"><path fill="#000000" fill-opacity="0.0" d="m0 0l192.0 0l0 48.0l-192.0 0z" fill-rule="evenodd"/><path fill="#ffffff" d="m0.19597559 -0.097112864l192.0 0l0 48.0l-192.0 0z" fill-rule="evenodd"/><path fill="#000000" d="m9.136879 7.825192c0.8351021 0 1.4402456 0.6548257 1.8154402 1.9644771c0.3769169 1.3096523 0.5653753 3.336073 0.5653801 6.079262c0 1.8936863 -0.10287285 3.430462 -0.30862427 4.6103287c-0.20402431 1.1739674 -0.4849825 1.9880753 -0.8428831 2.4423237c-0.35790157 0.448349 -0.8973465 0.6725235 -1.6183367 0.6725235l-0.4434862 0l0 -15.768915zm-4.769423 -1.9379306l0 0.98223877c0.48238897 0 0.8117614 0.15043306 0.98811865 0.4512987c0.17635727 0.30086613 0.29911232 0.7049713 0.36827517 1.2123127c0.07088518 0.50144386 0.106333256 1.7255545 0.106333256 3.6723347l0 23.361353c0 1.9467812 -0.035448074 3.167942 -0.106333256 3.6634865c-0.069162846 0.49554443 -0.19105673 0.89964676 -0.36568165 1.2123108c-0.17290258 0.3067665 -0.50313663 0.46014786 -0.99071217 0.46014786l0 0.98223877l5.3996396 0l0 -0.98223877c-0.4823885 0 -0.8117609 -0.15043259 -0.9881182 -0.45129776c-0.17635727 -0.30086517 -0.29998302 -0.70202255 -0.37086868 -1.2034645c-0.06916332 -0.5073433 -0.10373974 -1.7344017 -0.10373974 -3.6811829l0 -10.087856l0.692461 0l3.4000616 16.40604l3.322257 0l0 -0.98223877c-0.280097 -0.053092957 -0.5264778 -0.35395813 -0.7391443 -0.9025955c-0.14004803 -0.3893547 -0.37605476 -1.3715935 -0.70802116 -2.9467163l-2.5364304 -12.18507c0.64318466 -0.5486393 1.1437273 -1.3715954 1.5016289 -2.4688702c0.56019306 -1.7344036 0.8402891 -3.928955 0.8402891 -6.5836554c0 -2.1768532 -0.18673038 -4.073488 -0.56019306 -5.689905c-0.37346172 -1.6223164 -0.8558502 -2.7343397 -1.4471655 -3.336073c-0.59131527 -0.6017318 -1.52497 -0.9025974 -2.8009653 -0.9025974z" fill-rule="evenodd"/><path fill="#000000" d="m21.82681 7.081876c0.5238838 0 0.98639107 0.4866953 1.3875141 1.4600849c0.40285683 0.9733896 0.7339573 2.6429014 0.9933071 5.0085325c0.25934792 2.3597336 0.38902283 5.919979 0.38902283 10.68074c0 3.9997482 -0.12708092 7.244379 -0.38124275 9.733896c-0.25416183 2.4836197 -0.60947037 4.291767 -1.0659237 5.4244385c-0.35790062 0.88489914 -0.8039818 1.3273468 -1.3382397 1.3273468c-0.7936058 0 -1.4108562 -1.0264816 -1.8517494 -3.0794487c-0.6328106 -2.9378662 -0.94921684 -7.4774036 -0.94921684 -13.618608c0 -5.1678143 0.20488548 -9.132166 0.61465645 -11.893053c0.5031376 -3.3626194 1.2370949 -5.043929 2.2018719 -5.043929zm0.18767166 -1.7169547c-0.09267998 0 -0.18636131 0.005981922 -0.28103828 0.017947197c-0.08739281 -0.011927605 -0.17401695 -0.017891407 -0.2598648 -0.017891407c-1.4427643 0 -2.6675835 1.6843233 -3.6744537 5.052971c-1.0650578 3.563198 -1.5975895 8.017193 -1.5975895 13.361988c0 4.7607594 0.40977097 8.875544 1.2293129 12.344351c1.0373955 4.389103 2.50531 6.5836563 4.403742 6.5836563c1.8932457 0 3.3585644 -2.3007393 4.39596 -6.9022217c0.78323364 -3.4688034 1.1748505 -7.48625 1.1748505 -12.052334c0 -5.3447933 -0.5256119 -9.79584 -1.5768414 -13.353137c-0.9903717 -3.3568869 -2.261732 -5.0353293 -3.8140774 -5.0353293z" fill-rule="evenodd"/><path fill="#000000" d="m28.292374 5.8872614l0 0.98223877l0.3345585 0c0.2956581 0 0.5316658 0.17402983 0.7080231 0.5220909c0.17635727 0.3421607 0.29306412 0.740365 0.35012054 1.1946144c0.057056427 0.44834995 0.08558464 1.583971 0.08558464 3.4068642l0 22.77732c0 1.6105194 -0.005186081 2.513115 -0.01556015 2.7077942c-0.057056427 0.8318062 -0.13745499 1.4777832 -0.24119568 1.9379311c-0.103738785 0.46014786 -0.25675392 0.8288536 -0.4590454 1.1061249c-0.18990707 0.2547531 -0.39352798 0.38212967 -0.61086273 0.38212967c-0.014173508 0 -0.02840805 -5.378723E-4 -0.042696 -0.001625061l-0.10892677 0l0 0.98223877l3.6101341 0l0 -0.98223877c-0.48238945 0 -0.83683014 -0.27726746 -1.0633297 -0.83180237c-0.22476768 -0.56044006 -0.37086868 -1.2831078 -0.43829918 -2.168007c-0.025936127 -0.4070549 -0.03890419 -1.4954796 -0.03890419 -3.2652779l0 -25.35238l4.1080837 32.59971l0.18673325 0l4.0458374 -32.83863l0 26.67973c0 1.8051949 -0.028526306 2.9201698 -0.08558273 3.344921c-0.077804565 0.60173416 -0.18154526 1.0264854 -0.31122208 1.2742577c-0.18672943 0.3716545 -0.43570328 0.5574837 -0.74692154 0.5574837l-0.34234238 0l0 0.98223877l5.508568 0l0 -0.98223877l-0.34234238 0c-0.2956543 0 -0.531662 -0.17108154 -0.70801926 -0.5132408c-0.17635727 -0.3480606 -0.29306412 -0.75216293 -0.35012054 -1.2123108c-0.057056427 -0.46014786 -0.08558655 -1.6105194 -0.08558655 -3.4511108l0 -23.733013c0 -1.7874975 0.02853012 -2.8936224 0.08558655 -3.3183737c0.077804565 -0.58403397 0.18154144 -0.99993706 0.31121826 -1.2477093c0.18672943 -0.37165785 0.43570328 -0.55748653 0.74692154 -0.55748653l0.34234238 0l0 -0.98223877l-4.294815 0l-2.8632088 23.733013l-2.9643555 -23.733013z" fill-rule="evenodd"/><path fill="#000000" d="m47.805767 17.27592l1.5716553 12.397448l-3.189991 0l1.6183357 -12.397448zm0.94143677 -12.131975l-3.7735214 28.723848c-0.35790253 2.743187 -0.6587486 4.554283 -0.9025345 5.4332848c-0.24378967 0.87309647 -0.55500793 1.40699 -0.9336548 1.6016655l0 0.98223877l3.5089874 0l0 -0.98223877c-0.54981995 -0.14158249 -0.8947525 -0.35395813 -1.0348015 -0.6371269c-0.23860168 -0.47784424 -0.35790253 -1.2211609 -0.35790253 -2.2299461c0 -0.76101303 0.07262039 -1.7255554 0.21785355 -2.8936234l0.44348526 -3.504202l3.726841 0l0.5601959 4.4864407c0.14523315 1.1680679 0.22303772 1.8317413 0.2334137 1.991024c0.0311203 0.33626175 0.04668045 0.6636772 0.04668045 0.98223877c0 0.530941 -0.057056427 0.9379959 -0.17116928 1.2211609c-0.1659813 0.38935852 -0.45386124 0.58403397 -0.8636322 0.58403397l-0.21007156 0l0 0.98223877l5.103981 0l0 -0.98223877c-0.32159042 -0.08848953 -0.57056427 -0.4070511 -0.74692154 -0.9556885c-0.2334137 -0.72562027 -0.5316658 -2.4865685 -0.8947525 -5.282852l-3.8046455 -29.520258z" fill-rule="evenodd"/><path fill="#000000" d="m54.74594 5.8872614l0 0.98223877c0.32159042 0.0353961 0.5679741 0.20352697 0.7391434 0.5043926c0.17116928 0.30086613 0.3682747 0.92914486 0.5913124 1.8848372l0.22563553 0.95569134l0 25.405476c0 1.9113808 -0.114112854 3.2652779 -0.34234238 4.0616875c-0.22822571 0.7964096 -0.6328087 1.2034645 -1.2137489 1.2211609l0 0.98223877l3.7424011 0l0 -0.98223877l-0.24897385 0c-0.35790253 0 -0.67603683 -0.36280823 -0.95440674 -1.0884247c-0.27663803 -0.72561646 -0.41495514 -2.1237602 -0.41495514 -4.1944237l0 -22.88351l7.134678 29.971558l0.26454163 0l0 -29.971558c0 -1.699007 0.0423584 -2.8965712 0.1270752 -3.5926924c0.08644867 -0.70202065 0.20574951 -1.2064133 0.35790253 -1.5131793c0.15388489 -0.312665 0.45386505 -0.5663357 0.8999405 -0.7610135l0 -0.98223877l-3.4856453 0l0 0.98223877c0.01953888 -0.0011796951 0.038887024 -0.0017695427 0.058052063 -0.0017695427c0.5557251 0 0.9539261 0.4961338 1.194603 1.4884009c0.18154526 0.761014 0.27231598 2.221099 0.27231598 4.380254l0 15.476898l-5.2051277 -22.326023z" fill-rule="evenodd"/><path fill="#000000" d="m78.29739 5.8872614l0 0.98223877l0.35012054 0c0.34233856 0 0.61206055 0.24777174 0.80916595 0.7433157c0.1400528 0.33626175 0.23600769 0.8141079 0.28787994 1.4335375c0.025932312 0.37165833 0.038902283 1.3715944 0.038902283 2.9998102l0 23.679918c0 1.8051949 -0.028526306 2.9201698 -0.08558655 3.344921c-0.07261658 0.60173416 -0.17635345 1.0264854 -0.31121826 1.2742577c-0.18672943 0.3716545 -0.4331131 0.5574837 -0.7391434 0.5574837l-0.35012054 0l0 0.98223877l9.118698 0l0.47460938 -11.441753l-0.2878723 0c-0.25935364 3.1856384 -0.6864166 5.557171 -1.281189 7.1145935c-0.59304047 1.5574265 -1.3823242 2.3361359 -2.3678513 2.3361359l-0.6302185 0c-0.3008423 0 -0.518692 -0.14158249 -0.6535568 -0.42475128c-0.1348648 -0.2831688 -0.22736359 -0.645977 -0.27750397 -1.0884247c-0.04840851 -0.44245148 -0.07261658 -1.6547623 -0.07261658 -3.63694l0 -10.140951c0.5031357 0 0.8869705 0.22712517 1.1515045 0.6813736c0.26454163 0.448349 0.49622345 1.3273487 0.69506073 2.637001c0.20056152 1.3096504 0.3319626 2.990961 0.39421082 5.043928l0.2956543 0l0 -18.848366l-0.2956543 0c-0.08299255 2.7962837 -0.27490997 4.911194 -0.5757599 6.3447323c-0.3008423 1.4335365 -0.78582764 2.1503067 -1.4549408 2.1503067l-0.21007538 0l0 -14.653941l1.0892639 0c0.7987976 0 1.3434296 0.15928173 1.6338959 0.47784615c0.4979477 0.53094006 0.8826523 1.3627453 1.1541061 2.4954176c0.2731781 1.1326714 0.48497772 2.9998102 0.63539886 5.6014156l0.29566193 0l0 -10.645345z" fill-rule="evenodd"/><path fill="#000000" d="m88.83214 5.8872614l0 0.98223877c0.32159424 0.0353961 0.5679703 0.20352697 0.7391434 0.5043926c0.1711731 0.30086613 0.3682785 0.92914486 0.5913162 1.8848372l0.22563171 0.95569134l0 25.405476c0 1.9113808 -0.114112854 3.2652779 -0.34233856 4.0616875c-0.22822571 0.7964096 -0.6328125 1.2034645 -1.2137527 1.2211609l0 0.98223877l3.7424011 0l0 -0.98223877l-0.24897003 0c-0.35790253 0 -0.67604065 -0.36280823 -0.95440674 -1.0884247c-0.27664185 -0.72561646 -0.41495514 -2.1237602 -0.41495514 -4.1944237l0 -22.88351l7.1346817 29.971558l0.264534 0l0 -29.971558c0 -1.699007 0.0423584 -2.8965712 0.12708282 -3.5926924c0.08644867 -0.70202065 0.20574951 -1.2064133 0.35790253 -1.5131793c0.15387726 -0.312665 0.45385742 -0.5663357 0.89993286 -0.7610135l0 -0.98223877l-3.4856415 0l0 0.98223877c0.01953888 -0.0011796951 0.038887024 -0.0017695427 0.058052063 -0.0017695427c0.5557251 0 0.9539261 0.4961338 1.194603 1.4884009c0.18154144 0.761014 0.27231598 2.221099 0.27231598 4.380254l0 15.476898l-5.2051315 -22.326023z" fill-rule="evenodd"/><path fill="#000000" d="m100.68956 5.8872614l0 9.742746l0.29566193 0c0.11929321 -2.6546993 0.40457916 -4.6988173 0.8558502 -6.1323557c0.3215866 -1.0264835 0.83769226 -1.5397253 1.5483093 -1.5397253l0.7624817 0l0 27.768154c0 1.8051949 -0.028526306 2.9201698 -0.08557892 3.344921c-0.077804565 0.60173416 -0.18414307 1.0264854 -0.31900024 1.2742577c-0.18672943 0.3716545 -0.4331131 0.5574837 -0.7391434 0.5574837l-0.35012054 0l0 0.98223877l5.524124 0l0 -0.98223877l-0.35012054 0c-0.3008423 0 -0.53858185 -0.17108154 -0.71321106 -0.5132408c-0.17289734 -0.3480606 -0.2896042 -0.75216293 -0.35012054 -1.2123108c-0.058784485 -0.46014786 -0.08817291 -1.6105194 -0.08817291 -3.4511108l0 -27.768154l0.78582 0c0.49276733 0 0.8376999 0.15928173 1.0348053 0.47784615c0.35271454 0.58403397 0.6302185 1.3686457 0.8325119 2.3538332c0.20228577 0.97929 0.38642883 2.5927563 0.5524063 4.8404016l0.28009796 0l0 -9.742746z" fill-rule="evenodd"/><path fill="#000000" d="m111.06091 5.8872614l0 0.98223877l0.35012054 0c0.34233856 0 0.6120682 0.24777174 0.8091736 0.7433157c0.14004517 0.33626175 0.23600006 0.8141079 0.2878723 1.4335375c0.025932312 0.37165833 0.038902283 1.3715944 0.038902283 2.9998102l0 23.679918c0 1.8051949 -0.028526306 2.9201698 -0.08558655 3.344921c-0.07261658 0.60173416 -0.17635345 1.0264854 -0.31121826 1.2742577c-0.18672943 0.3716545 -0.4331131 0.5574837 -0.7391434 0.5574837l-0.35012054 0l0 0.98223877l9.118698 0l0.47460938 -11.441753l-0.2878723 0c-0.25935364 3.1856384 -0.686409 5.557171 -1.2811813 7.1145935c-0.5930481 1.5574265 -1.3823318 2.3361359 -2.367859 2.3361359l-0.6302185 0c-0.3008423 0 -0.518692 -0.14158249 -0.6535568 -0.42475128c-0.13485718 -0.2831688 -0.22736359 -0.645977 -0.27750397 -1.0884247c-0.04840851 -0.44245148 -0.07261658 -1.6547623 -0.07261658 -3.63694l0 -10.140951c0.5031357 0 0.8869705 0.22712517 1.1515121 0.6813736c0.264534 0.448349 0.49621582 1.3273487 0.6950531 2.637001c0.20056152 1.3096504 0.3319626 2.990961 0.39421082 5.043928l0.2956543 0l0 -18.848366l-0.2956543 0c-0.08299255 2.7962837 -0.27490997 4.911194 -0.5757599 6.3447323c-0.3008423 1.4335365 -0.78582 2.1503067 -1.4549408 2.1503067l-0.21007538 0l0 -14.653941l1.0892639 0c0.7987976 0 1.3434296 0.15928173 1.6338959 0.47784615c0.49795532 0.53094006 0.8826523 1.3627453 1.1541061 2.4954176c0.2731781 1.1326714 0.48497772 2.9998102 0.63539886 5.6014156l0.29566193 0l0 -10.645345z" fill-rule="evenodd"/><path fill="#000000" d="m126.435104 7.825192c0.8351059 0 1.4402466 0.6548257 1.815445 1.9644771c0.3769226 1.3096523 0.5653839 3.336073 0.5653839 6.079262c0 1.8936863 -0.102890015 3.430462 -0.30862427 4.6103287c-0.20402527 1.1739674 -0.48498535 1.9880753 -0.8428879 2.4423237c-0.35790253 0.448349 -0.8973465 0.6725235 -1.6183395 0.6725235l-0.44348907 0l0 -15.768915zm-4.7694244 -1.9379306l0 0.98223877c0.48239136 0 0.8117676 0.15043306 0.98812103 0.4512987c0.17636108 0.30086613 0.29911804 0.7049713 0.3682785 1.2123127c0.070884705 0.50144386 0.10633087 1.7255545 0.10633087 3.6723347l0 23.361353c0 1.9467812 -0.035446167 3.167942 -0.10633087 3.6634865c-0.06916046 0.49554443 -0.1910553 0.89964676 -0.3656845 1.2123108c-0.17289734 0.3067665 -0.5031357 0.46014786 -0.990715 0.46014786l0 0.98223877l5.399643 0l0 -0.98223877c-0.48239136 0 -0.81175995 -0.15043259 -0.98812103 -0.45129776c-0.17635345 -0.30086517 -0.29998016 -0.70202255 -0.37086487 -1.2034645c-0.06916046 -0.5073433 -0.10374451 -1.7344017 -0.10374451 -3.6811829l0 -10.087856l0.69246674 0l3.400055 16.40604l3.3222656 0l0 -0.98223877c-0.2801056 -0.053092957 -0.52648926 -0.35395813 -0.739151 -0.9025955c-0.14004517 -0.3893547 -0.37605286 -1.3715935 -0.7080231 -2.9467163l-2.5364227 -12.18507c0.6431885 -0.5486393 1.1437225 -1.3715954 1.5016327 -2.4688702c0.56018066 -1.7344036 0.84028625 -3.928955 0.84028625 -6.5836554c0 -2.1768532 -0.18673706 -4.073488 -0.5601959 -5.689905c-0.37345886 -1.6223164 -0.8558502 -2.7343397 -1.4471741 -3.336073c-0.5913086 -0.6017318 -1.5249634 -0.9025974 -2.8009567 -0.9025974z" fill-rule="evenodd"/><path fill="#000000" d="m137.49892 7.9579268c0.6795044 0 1.1904144 0.6194296 1.5327606 1.8582897c0.34233093 1.2388592 0.513504 3.1944885 0.513504 5.866885c0 2.690096 -0.1711731 4.678171 -0.513504 5.964226c-0.3423462 1.2801552 -0.82992554 1.9202309 -1.462738 1.9202309c-0.08818054 0 -0.21784973 -0.01769638 -0.38902283 -0.053092957l0 -15.556539zm-4.2170105 -2.0706654l0 0.98223877c0.48239136 0 0.8117676 0.15043306 0.98812866 0.4512987c0.17634583 0.30086613 0.29910278 0.7049713 0.36827087 1.2123127c0.070892334 0.50144386 0.1063385 1.7255545 0.1063385 3.6723347l0 23.361353c0 1.9467812 -0.035446167 3.167942 -0.1063385 3.6634865c-0.06916809 0.49554443 -0.1910553 0.89964676 -0.36567688 1.2123108c-0.1729126 0.3067665 -0.5031433 0.46014786 -0.99072266 0.46014786l0 0.98223877l5.3607483 0l0 -0.98223877c-0.47720337 0 -0.80570984 -0.15043259 -0.98553467 -0.45129776c-0.17808533 -0.30086517 -0.30256653 -0.70202255 -0.37345886 -1.2034645c-0.06915283 -0.5073433 -0.10374451 -1.7344017 -0.10374451 -3.6811829l0 -9.981668c1.1981964 0 2.0488586 -0.21237564 2.552002 -0.63712883c0.7469177 -0.60173035 1.3330536 -1.7344036 1.7583771 -3.398014c0.42533875 -1.6636124 0.6380005 -3.6634846 0.6380005 -5.9996204c0 -2.760888 -0.32937622 -5.0616274 -0.9881134 -6.902219c-0.65875244 -1.8405914 -1.7454224 -2.7608871 -3.260025 -2.7608871z" fill-rule="evenodd"/><path fill="#000000" d="m147.67577 7.825192c0.83509827 0 1.4402466 0.6548257 1.815445 1.9644771c0.3769226 1.3096523 0.56536865 3.336073 0.56536865 6.079262c0 1.8936863 -0.102874756 3.430462 -0.30862427 4.6103287c-0.20401001 1.1739674 -0.48498535 1.9880753 -0.84288025 2.4423237c-0.3578949 0.448349 -0.89733887 0.6725235 -1.6183319 0.6725235l-0.4434967 0l0 -15.768915zm-4.7694244 -1.9379306l0 0.98223877c0.48239136 0 0.8117676 0.15043306 0.9881134 0.4512987c0.17636108 0.30086613 0.29911804 0.7049713 0.36828613 1.2123127c0.070877075 0.50144386 0.10632324 1.7255545 0.10632324 3.6723347l0 23.361353c0 1.9467812 -0.035446167 3.167942 -0.10632324 3.6634865c-0.06916809 0.49554443 -0.1910553 0.89964676 -0.36569214 1.2123108c-0.17289734 0.3067665 -0.50312805 0.46014786 -0.9907074 0.46014786l0 0.98223877l5.399643 0l0 -0.98223877c-0.48239136 0 -0.8117676 -0.15043259 -0.98812866 -0.45129776c-0.17634583 -0.30086517 -0.29997253 -0.70202255 -0.37086487 -1.2034645c-0.06915283 -0.5073433 -0.10374451 -1.7344017 -0.10374451 -3.6811829l0 -10.087856l0.69247437 0l3.400055 16.40604l3.3222504 0l0 -0.98223877c-0.28009033 -0.053092957 -0.526474 -0.35395813 -0.73913574 -0.9025955c-0.14004517 -0.3893547 -0.37605286 -1.3715935 -0.7080231 -2.9467163l-2.5364227 -12.18507c0.6431732 -0.5486393 1.1437225 -1.3715954 1.5016174 -2.4688702c0.5601959 -1.7344036 0.8403015 -3.928955 0.8403015 -6.5836554c0 -2.1768532 -0.18673706 -4.073488 -0.5601959 -5.689905c-0.37347412 -1.6223164 -0.8558502 -2.7343397 -1.4471741 -3.336073c-0.5913086 -0.6017318 -1.5249634 -0.9025974 -2.8009644 -0.9025974zm11.53064 0l0 0.98223877l0.35012817 0c0.2956543 0 0.52993774 0.17402983 0.7028351 0.5220909c0.17462158 0.3421607 0.2904663 0.7433157 0.34751892 1.2034636c0.057052612 0.46014786 0.08558655 1.6105175 0.08558655 3.451109l0 23.679918c0 1.8051949 -0.028533936 2.9201698 -0.08558655 3.344921c-0.07261658 0.60173416 -0.17636108 1.0264854 -0.31121826 1.2742577c-0.1867218 0.3716545 -0.43310547 0.5574837 -0.73913574 0.5574837l-0.35012817 0l0 0.98223877l5.516342 0l0 -0.98223877l-0.35011292 0c-0.2956543 0 -0.53079224 -0.17108154 -0.7054291 -0.5132408c-0.17289734 -0.3480606 -0.28961182 -0.75216293 -0.35012817 -1.2123108c-0.058776855 -0.46014786 -0.08816528 -1.6105194 -0.08816528 -3.4511108l0 -23.679918c0 -1.8051949 0.028518677 -2.9201689 0.08558655 -3.344921c0.077804565 -0.6017313 0.18412781 -1.0264835 0.318985 -1.2742558c0.18673706 -0.37165785 0.43312073 -0.55748653 0.739151 -0.55748653l0.35011292 0l0 -0.98223877z" fill-rule="evenodd"/><path fill="#000000" d="m164.41153 5.0643044c-0.9388428 0 -1.7168884 1.0087857 -2.334137 3.0263577c-0.61724854 2.0175714 -0.9258728 4.459895 -0.9258728 7.32697c0 1.6813097 0.11238098 3.221036 0.3371582 4.619176c0.22650146 1.3981419 0.54981995 2.6635494 0.96995544 3.7962208c0.42015076 1.1326714 1.1100159 2.5042667 2.0696106 4.1147842c0.6846771 1.1503696 1.1618805 2.085413 1.4315948 2.805132c0.2697296 0.7138176 0.47029114 1.4689331 0.6016998 2.2653427c0.13313293 0.7964096 0.19969177 1.6193695 0.19969177 2.468872c0 1.4335365 -0.17289734 2.690094 -0.518692 3.7696724c-0.34407043 1.0795784 -0.8065796 1.6193657 -1.3875122 1.6193657c-0.752121 0 -1.4540863 -1.0028877 -2.1059113 -3.0086594c-0.6501007 -2.011673 -1.0892639 -4.92889 -1.3174896 -8.7516575l-0.28788757 0l0 13.592062l0.28788757 0c0.09335327 -0.72562027 0.21525574 -1.2654076 0.36567688 -1.6193695c0.15042114 -0.35395813 0.2930603 -0.5309372 0.42791748 -0.5309372c0.16079712 0 0.36569214 0.17697906 0.61465454 0.5309372c0.4460907 0.63713074 0.81695557 1.0707321 1.1126099 1.3008041c0.2956543 0.23007584 0.60946655 0.34511185 0.94143677 0.34511185c1.0581512 0 1.9304199 -1.082531 2.6168365 -3.2475815c0.68814087 -2.1709557 1.032196 -4.7607613 1.032196 -7.7694225c0 -2.3715305 -0.21266174 -4.4775925 -0.6379852 -6.318184c-0.43052673 -1.8405914 -1.263031 -3.7962208 -2.497528 -5.866886c-0.88179016 -1.4866314 -1.4445801 -2.5219631 -1.6883698 -3.105997c-0.3319702 -0.8141079 -0.57315063 -1.6370649 -0.72358704 -2.468871c-0.10891724 -0.6194296 -0.16337585 -1.3273497 -0.16337585 -2.1237593c0 -1.2565575 0.15386963 -2.365631 0.4616394 -3.3272228c0.30947876 -0.96749115 0.72875977 -1.4512362 1.257843 -1.4512362c0.6846771 0 1.3209381 0.91734695 1.9087982 2.7520385c0.58958435 1.8287935 0.9595947 4.2475185 1.1100159 7.256178l0.31900024 0l-0.08558655 -11.999241l-0.2334137 0c-0.06742859 1.0795779 -0.14004517 1.7609506 -0.21784973 2.0441184c-0.077804565 0.28316832 -0.18414307 0.42475224 -0.31900024 0.42475224c-0.14004517 0 -0.38557434 -0.28611803 -0.736557 -0.85835314c-0.34925842 -0.57813454 -0.6457825 -0.9733896 -0.8895569 -1.1857653c-0.32159424 -0.28316832 -0.65356445 -0.42475224 -0.99591064 -0.42475224z" fill-rule="evenodd"/><path fill="#000000" d="m169.49995 5.8872614l0 0.98223877l0.35012817 0c0.34233093 0 0.61206055 0.24777174 0.8091583 0.7433157c0.14004517 0.33626175 0.23600769 0.8141079 0.28788757 1.4335375c0.025924683 0.37165833 0.038894653 1.3715944 0.038894653 2.9998102l0 23.679918c0 1.8051949 -0.028533936 2.9201698 -0.08558655 3.344921c-0.07261658 0.60173416 -0.17636108 1.0264854 -0.31121826 1.2742577c-0.1867218 0.3716545 -0.43310547 0.5574837 -0.73913574 0.5574837l-0.35012817 0l0 0.98223877l9.118698 0l0.47460938 -11.441753l-0.2878723 0c-0.25935364 3.1856384 -0.6864166 5.557171 -1.281189 7.1145935c-0.59303284 1.5574265 -1.3823242 2.3361359 -2.3678436 2.3361359l-0.6302185 0c-0.3008423 0 -0.5187073 -0.14158249 -0.65356445 -0.42475128c-0.13485718 -0.2831688 -0.22735596 -0.645977 -0.27749634 -1.0884247c-0.048416138 -0.44245148 -0.07261658 -1.6547623 -0.07261658 -3.63694l0 -10.140951c0.50312805 0 0.8869629 0.22712517 1.1515045 0.6813736c0.26452637 0.448349 0.49621582 1.3273487 0.6950531 2.637001c0.20056152 1.3096504 0.3319702 2.990961 0.39421082 5.043928l0.2956543 0l0 -18.848366l-0.2956543 0c-0.08299255 2.7962837 -0.2749176 4.911194 -0.5757599 6.3447323c-0.3008423 1.4335365 -0.78582764 2.1503067 -1.4549408 2.1503067l-0.21006775 0l0 -14.653941l1.0892639 0c0.79878235 0 1.3434143 0.15928173 1.6338959 0.47784615c0.49794006 0.53094006 0.88264465 1.3627453 1.1540985 2.4954176c0.2731781 1.1326714 0.48498535 2.9998102 0.6354065 5.6014156l0.2956543 0l0 -10.645345z" fill-rule="evenodd"/><path fill="#000000" d="m183.9016 5.0643044c-0.9388428 0 -1.7168884 1.0087857 -2.3341522 3.0263577c-0.61724854 2.0175714 -0.9258728 4.459895 -0.9258728 7.32697c0 1.6813097 0.11239624 3.221036 0.3371582 4.619176c0.22650146 1.3981419 0.54981995 2.6635494 0.9699707 3.7962208c0.4201355 1.1326714 1.1100006 2.5042667 2.0695953 4.1147842c0.6846771 1.1503696 1.1618805 2.085413 1.4316101 2.805132c0.26971436 0.7138176 0.47027588 1.4689331 0.6016846 2.2653427c0.13313293 0.7964096 0.19969177 1.6193695 0.19969177 2.468872c0 1.4335365 -0.17289734 2.690094 -0.518692 3.7696724c-0.34407043 1.0795784 -0.8065796 1.6193657 -1.3875122 1.6193657c-0.752121 0 -1.4540863 -1.0028877 -2.1059113 -3.0086594c-0.6501007 -2.011673 -1.0892792 -4.92889 -1.3174896 -8.7516575l-0.28788757 0l0 13.592062l0.28788757 0c0.09336853 -0.72562027 0.21525574 -1.2654076 0.36567688 -1.6193695c0.15042114 -0.35395813 0.2930603 -0.5309372 0.42793274 -0.5309372c0.16078186 0 0.36567688 0.17697906 0.61465454 0.5309372c0.44607544 0.63713074 0.8169403 1.0707321 1.1125946 1.3008041c0.29566956 0.23007584 0.6094818 0.34511185 0.94143677 0.34511185c1.0581512 0 1.9304199 -1.082531 2.6168365 -3.2475815c0.6881256 -2.1709557 1.0322113 -4.7607613 1.0322113 -7.7694225c0 -2.3715305 -0.212677 -4.4775925 -0.6380005 -6.318184c-0.43052673 -1.8405914 -1.263031 -3.7962208 -2.497528 -5.866886c-0.88179016 -1.4866314 -1.4445801 -2.5219631 -1.6883698 -3.105997c-0.33195496 -0.8141079 -0.57315063 -1.6370649 -0.7235718 -2.468871c-0.108932495 -0.6194296 -0.16339111 -1.3273497 -0.16339111 -2.1237593c0 -1.2565575 0.15386963 -2.365631 0.4616394 -3.3272228c0.30947876 -0.96749115 0.728775 -1.4512362 1.257843 -1.4512362c0.6846771 0 1.3209381 0.91734695 1.9087982 2.7520385c0.58958435 1.8287935 0.9595947 4.2475185 1.1100159 7.256178l0.31900024 0l-0.08558655 -11.999241l-0.2334137 0c-0.06742859 1.0795779 -0.14004517 1.7609506 -0.21784973 2.0441184c-0.077804565 0.28316832 -0.18414307 0.42475224 -0.31900024 0.42475224c-0.14004517 0 -0.38557434 -0.28611803 -0.736557 -0.85835314c-0.34925842 -0.57813454 -0.6457672 -0.9733896 -0.8895569 -1.1857653c-0.32159424 -0.28316832 -0.65356445 -0.42475224 -0.9958954 -0.42475224z" fill-rule="evenodd"/><path stroke="#000000" stroke-width="1.0" stroke-linejoin="round" stroke-linecap="butt" d="m9.136879 7.825192c0.8351021 0 1.4402456 0.6548257 1.8154402 1.9644771c0.3769169 1.3096523 0.5653753 3.336073 0.5653801 6.079262c0 1.8936863 -0.10287285 3.430462 -0.30862427 4.6103287c-0.20402431 1.1739674 -0.4849825 1.9880753 -0.8428831 2.4423237c-0.35790157 0.448349 -0.8973465 0.6725235 -1.6183367 0.6725235l-0.4434862 0l0 -15.768915zm-4.769423 -1.9379306l0 0.98223877c0.48238897 0 0.8117614 0.15043306 0.98811865 0.4512987c0.17635727 0.30086613 0.29911232 0.7049713 0.36827517 1.2123127c0.07088518 0.50144386 0.106333256 1.7255545 0.106333256 3.6723347l0 23.361353c0 1.9467812 -0.035448074 3.167942 -0.106333256 3.6634865c-0.069162846 0.49554443 -0.19105673 0.89964676 -0.36568165 1.2123108c-0.17290258 0.3067665 -0.50313663 0.46014786 -0.99071217 0.46014786l0 0.98223877l5.3996396 0l0 -0.98223877c-0.4823885 0 -0.8117609 -0.15043259 -0.9881182 -0.45129776c-0.17635727 -0.30086517 -0.29998302 -0.70202255 -0.37086868 -1.2034645c-0.06916332 -0.5073433 -0.10373974 -1.7344017 -0.10373974 -3.6811829l0 -10.087856l0.692461 0l3.4000616 16.40604l3.322257 0l0 -0.98223877c-0.280097 -0.053092957 -0.5264778 -0.35395813 -0.7391443 -0.9025955c-0.14004803 -0.3893547 -0.37605476 -1.3715935 -0.70802116 -2.9467163l-2.5364304 -12.18507c0.64318466 -0.5486393 1.1437273 -1.3715954 1.5016289 -2.4688702c0.56019306 -1.7344036 0.8402891 -3.928955 0.8402891 -6.5836554c0 -2.1768532 -0.18673038 -4.073488 -0.56019306 -5.689905c-0.37346172 -1.6223164 -0.8558502 -2.7343397 -1.4471655 -3.336073c-0.59131527 -0.6017318 -1.52497 -0.9025974 -2.8009653 -0.9025974z" fill-rule="evenodd"/><path stroke="#000000" stroke-width="1.0" stroke-linejoin="round" stroke-linecap="butt" d="m21.82681 7.081876c0.5238838 0 0.98639107 0.4866953 1.3875141 1.4600849c0.40285683 0.9733896 0.7339573 2.6429014 0.9933071 5.0085325c0.25934792 2.3597336 0.38902283 5.919979 0.38902283 10.68074c0 3.9997482 -0.12708092 7.244379 -0.38124275 9.733896c-0.25416183 2.4836197 -0.60947037 4.291767 -1.0659237 5.4244385c-0.35790062 0.88489914 -0.8039818 1.3273468 -1.3382397 1.3273468c-0.7936058 0 -1.4108562 -1.0264816 -1.8517494 -3.0794487c-0.6328106 -2.9378662 -0.94921684 -7.4774036 -0.94921684 -13.618608c0 -5.1678143 0.20488548 -9.132166 0.61465645 -11.893053c0.5031376 -3.3626194 1.2370949 -5.043929 2.2018719 -5.043929zm0.18767166 -1.7169547c-0.09267998 0 -0.18636131 0.005981922 -0.28103828 0.017947197c-0.08739281 -0.011927605 -0.17401695 -0.017891407 -0.2598648 -0.017891407c-1.4427643 0 -2.6675835 1.6843233 -3.6744537 5.052971c-1.0650578 3.563198 -1.5975895 8.017193 -1.5975895 13.361988c0 4.7607594 0.40977097 8.875544 1.2293129 12.344351c1.0373955 4.389103 2.50531 6.5836563 4.403742 6.5836563c1.8932457 0 3.3585644 -2.3007393 4.39596 -6.9022217c0.78323364 -3.4688034 1.1748505 -7.48625 1.1748505 -12.052334c0 -5.3447933 -0.5256119 -9.79584 -1.5768414 -13.353137c-0.9903717 -3.3568869 -2.261732 -5.0353293 -3.8140774 -5.0353293z" fill-rule="evenodd"/><path stroke="#000000" stroke-width="1.0" stroke-linejoin="round" stroke-linecap="butt" d="m28.292374 5.8872614l0 0.98223877l0.3345585 0c0.2956581 0 0.5316658 0.17402983 0.7080231 0.5220909c0.17635727 0.3421607 0.29306412 0.740365 0.35012054 1.1946144c0.057056427 0.44834995 0.08558464 1.583971 0.08558464 3.4068642l0 22.77732c0 1.6105194 -0.005186081 2.513115 -0.01556015 2.7077942c-0.057056427 0.8318062 -0.13745499 1.4777832 -0.24119568 1.9379311c-0.103738785 0.46014786 -0.25675392 0.8288536 -0.4590454 1.1061249c-0.18990707 0.2547531 -0.39352798 0.38212967 -0.61086273 0.38212967c-0.014173508 0 -0.02840805 -5.378723E-4 -0.042696 -0.001625061l-0.10892677 0l0 0.98223877l3.6101341 0l0 -0.98223877c-0.48238945 0 -0.83683014 -0.27726746 -1.0633297 -0.83180237c-0.22476768 -0.56044006 -0.37086868 -1.2831078 -0.43829918 -2.168007c-0.025936127 -0.4070549 -0.03890419 -1.4954796 -0.03890419 -3.2652779l0 -25.35238l4.1080837 32.59971l0.18673325 0l4.0458374 -32.83863l0 26.67973c0 1.8051949 -0.028526306 2.9201698 -0.08558273 3.344921c-0.077804565 0.60173416 -0.18154526 1.0264854 -0.31122208 1.2742577c-0.18672943 0.3716545 -0.43570328 0.5574837 -0.74692154 0.5574837l-0.34234238 0l0 0.98223877l5.508568 0l0 -0.98223877l-0.34234238 0c-0.2956543 0 -0.531662 -0.17108154 -0.70801926 -0.5132408c-0.17635727 -0.3480606 -0.29306412 -0.75216293 -0.35012054 -1.2123108c-0.057056427 -0.46014786 -0.08558655 -1.6105194 -0.08558655 -3.4511108l0 -23.733013c0 -1.7874975 0.02853012 -2.8936224 0.08558655 -3.3183737c0.077804565 -0.58403397 0.18154144 -0.99993706 0.31121826 -1.2477093c0.18672943 -0.37165785 0.43570328 -0.55748653 0.74692154 -0.55748653l0.34234238 0l0 -0.98223877l-4.294815 0l-2.8632088 23.733013l-2.9643555 -23.733013z" fill-rule="evenodd"/><path stroke="#000000" stroke-width="1.0" stroke-linejoin="round" stroke-linecap="butt" d="m47.805767 17.27592l1.5716553 12.397448l-3.189991 0l1.6183357 -12.397448zm0.94143677 -12.131975l-3.7735214 28.723848c-0.35790253 2.743187 -0.6587486 4.554283 -0.9025345 5.4332848c-0.24378967 0.87309647 -0.55500793 1.40699 -0.9336548 1.6016655l0 0.98223877l3.5089874 0l0 -0.98223877c-0.54981995 -0.14158249 -0.8947525 -0.35395813 -1.0348015 -0.6371269c-0.23860168 -0.47784424 -0.35790253 -1.2211609 -0.35790253 -2.2299461c0 -0.76101303 0.07262039 -1.7255554 0.21785355 -2.8936234l0.44348526 -3.504202l3.726841 0l0.5601959 4.4864407c0.14523315 1.1680679 0.22303772 1.8317413 0.2334137 1.991024c0.0311203 0.33626175 0.04668045 0.6636772 0.04668045 0.98223877c0 0.530941 -0.057056427 0.9379959 -0.17116928 1.2211609c-0.1659813 0.38935852 -0.45386124 0.58403397 -0.8636322 0.58403397l-0.21007156 0l0 0.98223877l5.103981 0l0 -0.98223877c-0.32159042 -0.08848953 -0.57056427 -0.4070511 -0.74692154 -0.9556885c-0.2334137 -0.72562027 -0.5316658 -2.4865685 -0.8947525 -5.282852l-3.8046455 -29.520258z" fill-rule="evenodd"/><path stroke="#000000" stroke-width="1.0" stroke-linejoin="round" stroke-linecap="butt" d="m54.74594 5.8872614l0 0.98223877c0.32159042 0.0353961 0.5679741 0.20352697 0.7391434 0.5043926c0.17116928 0.30086613 0.3682747 0.92914486 0.5913124 1.8848372l0.22563553 0.95569134l0 25.405476c0 1.9113808 -0.114112854 3.2652779 -0.34234238 4.0616875c-0.22822571 0.7964096 -0.6328087 1.2034645 -1.2137489 1.2211609l0 0.98223877l3.7424011 0l0 -0.98223877l-0.24897385 0c-0.35790253 0 -0.67603683 -0.36280823 -0.95440674 -1.0884247c-0.27663803 -0.72561646 -0.41495514 -2.1237602 -0.41495514 -4.1944237l0 -22.88351l7.134678 29.971558l0.26454163 0l0 -29.971558c0 -1.699007 0.0423584 -2.8965712 0.1270752 -3.5926924c0.08644867 -0.70202065 0.20574951 -1.2064133 0.35790253 -1.5131793c0.15388489 -0.312665 0.45386505 -0.5663357 0.8999405 -0.7610135l0 -0.98223877l-3.4856453 0l0 0.98223877c0.01953888 -0.0011796951 0.038887024 -0.0017695427 0.058052063 -0.0017695427c0.5557251 0 0.9539261 0.4961338 1.194603 1.4884009c0.18154526 0.761014 0.27231598 2.221099 0.27231598 4.380254l0 15.476898l-5.2051277 -22.326023z" fill-rule="evenodd"/><path stroke="#000000" stroke-width="1.0" stroke-linejoin="round" stroke-linecap="butt" d="m78.29739 5.8872614l0 0.98223877l0.35012054 0c0.34233856 0 0.61206055 0.24777174 0.80916595 0.7433157c0.1400528 0.33626175 0.23600769 0.8141079 0.28787994 1.4335375c0.025932312 0.37165833 0.038902283 1.3715944 0.038902283 2.9998102l0 23.679918c0 1.8051949 -0.028526306 2.9201698 -0.08558655 3.344921c-0.07261658 0.60173416 -0.17635345 1.0264854 -0.31121826 1.2742577c-0.18672943 0.3716545 -0.4331131 0.5574837 -0.7391434 0.5574837l-0.35012054 0l0 0.98223877l9.118698 0l0.47460938 -11.441753l-0.2878723 0c-0.25935364 3.1856384 -0.6864166 5.557171 -1.281189 7.1145935c-0.59304047 1.5574265 -1.3823242 2.3361359 -2.3678513 2.3361359l-0.6302185 0c-0.3008423 0 -0.518692 -0.14158249 -0.6535568 -0.42475128c-0.1348648 -0.2831688 -0.22736359 -0.645977 -0.27750397 -1.0884247c-0.04840851 -0.44245148 -0.07261658 -1.6547623 -0.07261658 -3.63694l0 -10.140951c0.5031357 0 0.8869705 0.22712517 1.1515045 0.6813736c0.26454163 0.448349 0.49622345 1.3273487 0.69506073 2.637001c0.20056152 1.3096504 0.3319626 2.990961 0.39421082 5.043928l0.2956543 0l0 -18.848366l-0.2956543 0c-0.08299255 2.7962837 -0.27490997 4.911194 -0.5757599 6.3447323c-0.3008423 1.4335365 -0.78582764 2.1503067 -1.4549408 2.1503067l-0.21007538 0l0 -14.653941l1.0892639 0c0.7987976 0 1.3434296 0.15928173 1.6338959 0.47784615c0.4979477 0.53094006 0.8826523 1.3627453 1.1541061 2.4954176c0.2731781 1.1326714 0.48497772 2.9998102 0.63539886 5.6014156l0.29566193 0l0 -10.645345z" fill-rule="evenodd"/><path stroke="#000000" stroke-width="1.0" stroke-linejoin="round" stroke-linecap="butt" d="m88.83214 5.8872614l0 0.98223877c0.32159424 0.0353961 0.5679703 0.20352697 0.7391434 0.5043926c0.1711731 0.30086613 0.3682785 0.92914486 0.5913162 1.8848372l0.22563171 0.95569134l0 25.405476c0 1.9113808 -0.114112854 3.2652779 -0.34233856 4.0616875c-0.22822571 0.7964096 -0.6328125 1.2034645 -1.2137527 1.2211609l0 0.98223877l3.7424011 0l0 -0.98223877l-0.24897003 0c-0.35790253 0 -0.67604065 -0.36280823 -0.95440674 -1.0884247c-0.27664185 -0.72561646 -0.41495514 -2.1237602 -0.41495514 -4.1944237l0 -22.88351l7.1346817 29.971558l0.264534 0l0 -29.971558c0 -1.699007 0.0423584 -2.8965712 0.12708282 -3.5926924c0.08644867 -0.70202065 0.20574951 -1.2064133 0.35790253 -1.5131793c0.15387726 -0.312665 0.45385742 -0.5663357 0.89993286 -0.7610135l0 -0.98223877l-3.4856415 0l0 0.98223877c0.01953888 -0.0011796951 0.038887024 -0.0017695427 0.058052063 -0.0017695427c0.5557251 0 0.9539261 0.4961338 1.194603 1.4884009c0.18154144 0.761014 0.27231598 2.221099 0.27231598 4.380254l0 15.476898l-5.2051315 -22.326023z" fill-rule="evenodd"/><path stroke="#000000" stroke-width="1.0" stroke-linejoin="round" stroke-linecap="butt" d="m100.68956 5.8872614l0 9.742746l0.29566193 0c0.11929321 -2.6546993 0.40457916 -4.6988173 0.8558502 -6.1323557c0.3215866 -1.0264835 0.83769226 -1.5397253 1.5483093 -1.5397253l0.7624817 0l0 27.768154c0 1.8051949 -0.028526306 2.9201698 -0.08557892 3.344921c-0.077804565 0.60173416 -0.18414307 1.0264854 -0.31900024 1.2742577c-0.18672943 0.3716545 -0.4331131 0.5574837 -0.7391434 0.5574837l-0.35012054 0l0 0.98223877l5.524124 0l0 -0.98223877l-0.35012054 0c-0.3008423 0 -0.53858185 -0.17108154 -0.71321106 -0.5132408c-0.17289734 -0.3480606 -0.2896042 -0.75216293 -0.35012054 -1.2123108c-0.058784485 -0.46014786 -0.08817291 -1.6105194 -0.08817291 -3.4511108l0 -27.768154l0.78582 0c0.49276733 0 0.8376999 0.15928173 1.0348053 0.47784615c0.35271454 0.58403397 0.6302185 1.3686457 0.8325119 2.3538332c0.20228577 0.97929 0.38642883 2.5927563 0.5524063 4.8404016l0.28009796 0l0 -9.742746z" fill-rule="evenodd"/><path stroke="#000000" stroke-width="1.0" stroke-linejoin="round" stroke-linecap="butt" d="m111.06091 5.8872614l0 0.98223877l0.35012054 0c0.34233856 0 0.6120682 0.24777174 0.8091736 0.7433157c0.14004517 0.33626175 0.23600006 0.8141079 0.2878723 1.4335375c0.025932312 0.37165833 0.038902283 1.3715944 0.038902283 2.9998102l0 23.679918c0 1.8051949 -0.028526306 2.9201698 -0.08558655 3.344921c-0.07261658 0.60173416 -0.17635345 1.0264854 -0.31121826 1.2742577c-0.18672943 0.3716545 -0.4331131 0.5574837 -0.7391434 0.5574837l-0.35012054 0l0 0.98223877l9.118698 0l0.47460938 -11.441753l-0.2878723 0c-0.25935364 3.1856384 -0.686409 5.557171 -1.2811813 7.1145935c-0.5930481 1.5574265 -1.3823318 2.3361359 -2.367859 2.3361359l-0.6302185 0c-0.3008423 0 -0.518692 -0.14158249 -0.6535568 -0.42475128c-0.13485718 -0.2831688 -0.22736359 -0.645977 -0.27750397 -1.0884247c-0.04840851 -0.44245148 -0.07261658 -1.6547623 -0.07261658 -3.63694l0 -10.140951c0.5031357 0 0.8869705 0.22712517 1.1515121 0.6813736c0.264534 0.448349 0.49621582 1.3273487 0.6950531 2.637001c0.20056152 1.3096504 0.3319626 2.990961 0.39421082 5.043928l0.2956543 0l0 -18.848366l-0.2956543 0c-0.08299255 2.7962837 -0.27490997 4.911194 -0.5757599 6.3447323c-0.3008423 1.4335365 -0.78582 2.1503067 -1.4549408 2.1503067l-0.21007538 0l0 -14.653941l1.0892639 0c0.7987976 0 1.3434296 0.15928173 1.6338959 0.47784615c0.49795532 0.53094006 0.8826523 1.3627453 1.1541061 2.4954176c0.2731781 1.1326714 0.48497772 2.9998102 0.63539886 5.6014156l0.29566193 0l0 -10.645345z" fill-rule="evenodd"/><path stroke="#000000" stroke-width="1.0" stroke-linejoin="round" stroke-linecap="butt" d="m126.435104 7.825192c0.8351059 0 1.4402466 0.6548257 1.815445 1.9644771c0.3769226 1.3096523 0.5653839 3.336073 0.5653839 6.079262c0 1.8936863 -0.102890015 3.430462 -0.30862427 4.6103287c-0.20402527 1.1739674 -0.48498535 1.9880753 -0.8428879 2.4423237c-0.35790253 0.448349 -0.8973465 0.6725235 -1.6183395 0.6725235l-0.44348907 0l0 -15.768915zm-4.7694244 -1.9379306l0 0.98223877c0.48239136 0 0.8117676 0.15043306 0.98812103 0.4512987c0.17636108 0.30086613 0.29911804 0.7049713 0.3682785 1.2123127c0.070884705 0.50144386 0.10633087 1.7255545 0.10633087 3.6723347l0 23.361353c0 1.9467812 -0.035446167 3.167942 -0.10633087 3.6634865c-0.06916046 0.49554443 -0.1910553 0.89964676 -0.3656845 1.2123108c-0.17289734 0.3067665 -0.5031357 0.46014786 -0.990715 0.46014786l0 0.98223877l5.399643 0l0 -0.98223877c-0.48239136 0 -0.81175995 -0.15043259 -0.98812103 -0.45129776c-0.17635345 -0.30086517 -0.29998016 -0.70202255 -0.37086487 -1.2034645c-0.06916046 -0.5073433 -0.10374451 -1.7344017 -0.10374451 -3.6811829l0 -10.087856l0.69246674 0l3.400055 16.40604l3.3222656 0l0 -0.98223877c-0.2801056 -0.053092957 -0.52648926 -0.35395813 -0.739151 -0.9025955c-0.14004517 -0.3893547 -0.37605286 -1.3715935 -0.7080231 -2.9467163l-2.5364227 -12.18507c0.6431885 -0.5486393 1.1437225 -1.3715954 1.5016327 -2.4688702c0.56018066 -1.7344036 0.84028625 -3.928955 0.84028625 -6.5836554c0 -2.1768532 -0.18673706 -4.073488 -0.5601959 -5.689905c-0.37345886 -1.6223164 -0.8558502 -2.7343397 -1.4471741 -3.336073c-0.5913086 -0.6017318 -1.5249634 -0.9025974 -2.8009567 -0.9025974z" fill-rule="evenodd"/><path stroke="#000000" stroke-width="1.0" stroke-linejoin="round" stroke-linecap="butt" d="m137.49892 7.9579268c0.6795044 0 1.1904144 0.6194296 1.5327606 1.8582897c0.34233093 1.2388592 0.513504 3.1944885 0.513504 5.866885c0 2.690096 -0.1711731 4.678171 -0.513504 5.964226c-0.3423462 1.2801552 -0.82992554 1.9202309 -1.462738 1.9202309c-0.08818054 0 -0.21784973 -0.01769638 -0.38902283 -0.053092957l0 -15.556539zm-4.2170105 -2.0706654l0 0.98223877c0.48239136 0 0.8117676 0.15043306 0.98812866 0.4512987c0.17634583 0.30086613 0.29910278 0.7049713 0.36827087 1.2123127c0.070892334 0.50144386 0.1063385 1.7255545 0.1063385 3.6723347l0 23.361353c0 1.9467812 -0.035446167 3.167942 -0.1063385 3.6634865c-0.06916809 0.49554443 -0.1910553 0.89964676 -0.36567688 1.2123108c-0.1729126 0.3067665 -0.5031433 0.46014786 -0.99072266 0.46014786l0 0.98223877l5.3607483 0l0 -0.98223877c-0.47720337 0 -0.80570984 -0.15043259 -0.98553467 -0.45129776c-0.17808533 -0.30086517 -0.30256653 -0.70202255 -0.37345886 -1.2034645c-0.06915283 -0.5073433 -0.10374451 -1.7344017 -0.10374451 -3.6811829l0 -9.981668c1.1981964 0 2.0488586 -0.21237564 2.552002 -0.63712883c0.7469177 -0.60173035 1.3330536 -1.7344036 1.7583771 -3.398014c0.42533875 -1.6636124 0.6380005 -3.6634846 0.6380005 -5.9996204c0 -2.760888 -0.32937622 -5.0616274 -0.9881134 -6.902219c-0.65875244 -1.8405914 -1.7454224 -2.7608871 -3.260025 -2.7608871z" fill-rule="evenodd"/><path stroke="#000000" stroke-width="1.0" stroke-linejoin="round" stroke-linecap="butt" d="m147.67577 7.825192c0.83509827 0 1.4402466 0.6548257 1.815445 1.9644771c0.3769226 1.3096523 0.56536865 3.336073 0.56536865 6.079262c0 1.8936863 -0.102874756 3.430462 -0.30862427 4.6103287c-0.20401001 1.1739674 -0.48498535 1.9880753 -0.84288025 2.4423237c-0.3578949 0.448349 -0.89733887 0.6725235 -1.6183319 0.6725235l-0.4434967 0l0 -15.768915zm-4.7694244 -1.9379306l0 0.98223877c0.48239136 0 0.8117676 0.15043306 0.9881134 0.4512987c0.17636108 0.30086613 0.29911804 0.7049713 0.36828613 1.2123127c0.070877075 0.50144386 0.10632324 1.7255545 0.10632324 3.6723347l0 23.361353c0 1.9467812 -0.035446167 3.167942 -0.10632324 3.6634865c-0.06916809 0.49554443 -0.1910553 0.89964676 -0.36569214 1.2123108c-0.17289734 0.3067665 -0.50312805 0.46014786 -0.9907074 0.46014786l0 0.98223877l5.399643 0l0 -0.98223877c-0.48239136 0 -0.8117676 -0.15043259 -0.98812866 -0.45129776c-0.17634583 -0.30086517 -0.29997253 -0.70202255 -0.37086487 -1.2034645c-0.06915283 -0.5073433 -0.10374451 -1.7344017 -0.10374451 -3.6811829l0 -10.087856l0.69247437 0l3.400055 16.40604l3.3222504 0l0 -0.98223877c-0.28009033 -0.053092957 -0.526474 -0.35395813 -0.73913574 -0.9025955c-0.14004517 -0.3893547 -0.37605286 -1.3715935 -0.7080231 -2.9467163l-2.5364227 -12.18507c0.6431732 -0.5486393 1.1437225 -1.3715954 1.5016174 -2.4688702c0.5601959 -1.7344036 0.8403015 -3.928955 0.8403015 -6.5836554c0 -2.1768532 -0.18673706 -4.073488 -0.5601959 -5.689905c-0.37347412 -1.6223164 -0.8558502 -2.7343397 -1.4471741 -3.336073c-0.5913086 -0.6017318 -1.5249634 -0.9025974 -2.8009644 -0.9025974zm11.53064 0l0 0.98223877l0.35012817 0c0.2956543 0 0.52993774 0.17402983 0.7028351 0.5220909c0.17462158 0.3421607 0.2904663 0.7433157 0.34751892 1.2034636c0.057052612 0.46014786 0.08558655 1.6105175 0.08558655 3.451109l0 23.679918c0 1.8051949 -0.028533936 2.9201698 -0.08558655 3.344921c-0.07261658 0.60173416 -0.17636108 1.0264854 -0.31121826 1.2742577c-0.1867218 0.3716545 -0.43310547 0.5574837 -0.73913574 0.5574837l-0.35012817 0l0 0.98223877l5.516342 0l0 -0.98223877l-0.35011292 0c-0.2956543 0 -0.53079224 -0.17108154 -0.7054291 -0.5132408c-0.17289734 -0.3480606 -0.28961182 -0.75216293 -0.35012817 -1.2123108c-0.058776855 -0.46014786 -0.08816528 -1.6105194 -0.08816528 -3.4511108l0 -23.679918c0 -1.8051949 0.028518677 -2.9201689 0.08558655 -3.344921c0.077804565 -0.6017313 0.18412781 -1.0264835 0.318985 -1.2742558c0.18673706 -0.37165785 0.43312073 -0.55748653 0.739151 -0.55748653l0.35011292 0l0 -0.98223877z" fill-rule="evenodd"/><path stroke="#000000" stroke-width="1.0" stroke-linejoin="round" stroke-linecap="butt" d="m164.41153 5.0643044c-0.9388428 0 -1.7168884 1.0087857 -2.334137 3.0263577c-0.61724854 2.0175714 -0.9258728 4.459895 -0.9258728 7.32697c0 1.6813097 0.11238098 3.221036 0.3371582 4.619176c0.22650146 1.3981419 0.54981995 2.6635494 0.96995544 3.7962208c0.42015076 1.1326714 1.1100159 2.5042667 2.0696106 4.1147842c0.6846771 1.1503696 1.1618805 2.085413 1.4315948 2.805132c0.2697296 0.7138176 0.47029114 1.4689331 0.6016998 2.2653427c0.13313293 0.7964096 0.19969177 1.6193695 0.19969177 2.468872c0 1.4335365 -0.17289734 2.690094 -0.518692 3.7696724c-0.34407043 1.0795784 -0.8065796 1.6193657 -1.3875122 1.6193657c-0.752121 0 -1.4540863 -1.0028877 -2.1059113 -3.0086594c-0.6501007 -2.011673 -1.0892639 -4.92889 -1.3174896 -8.7516575l-0.28788757 0l0 13.592062l0.28788757 0c0.09335327 -0.72562027 0.21525574 -1.2654076 0.36567688 -1.6193695c0.15042114 -0.35395813 0.2930603 -0.5309372 0.42791748 -0.5309372c0.16079712 0 0.36569214 0.17697906 0.61465454 0.5309372c0.4460907 0.63713074 0.81695557 1.0707321 1.1126099 1.3008041c0.2956543 0.23007584 0.60946655 0.34511185 0.94143677 0.34511185c1.0581512 0 1.9304199 -1.082531 2.6168365 -3.2475815c0.68814087 -2.1709557 1.032196 -4.7607613 1.032196 -7.7694225c0 -2.3715305 -0.21266174 -4.4775925 -0.6379852 -6.318184c-0.43052673 -1.8405914 -1.263031 -3.7962208 -2.497528 -5.866886c-0.88179016 -1.4866314 -1.4445801 -2.5219631 -1.6883698 -3.105997c-0.3319702 -0.8141079 -0.57315063 -1.6370649 -0.72358704 -2.468871c-0.10891724 -0.6194296 -0.16337585 -1.3273497 -0.16337585 -2.1237593c0 -1.2565575 0.15386963 -2.365631 0.4616394 -3.3272228c0.30947876 -0.96749115 0.72875977 -1.4512362 1.257843 -1.4512362c0.6846771 0 1.3209381 0.91734695 1.9087982 2.7520385c0.58958435 1.8287935 0.9595947 4.2475185 1.1100159 7.256178l0.31900024 0l-0.08558655 -11.999241l-0.2334137 0c-0.06742859 1.0795779 -0.14004517 1.7609506 -0.21784973 2.0441184c-0.077804565 0.28316832 -0.18414307 0.42475224 -0.31900024 0.42475224c-0.14004517 0 -0.38557434 -0.28611803 -0.736557 -0.85835314c-0.34925842 -0.57813454 -0.6457825 -0.9733896 -0.8895569 -1.1857653c-0.32159424 -0.28316832 -0.65356445 -0.42475224 -0.99591064 -0.42475224z" fill-rule="evenodd"/><path stroke="#000000" stroke-width="1.0" stroke-linejoin="round" stroke-linecap="butt" d="m169.49995 5.8872614l0 0.98223877l0.35012817 0c0.34233093 0 0.61206055 0.24777174 0.8091583 0.7433157c0.14004517 0.33626175 0.23600769 0.8141079 0.28788757 1.4335375c0.025924683 0.37165833 0.038894653 1.3715944 0.038894653 2.9998102l0 23.679918c0 1.8051949 -0.028533936 2.9201698 -0.08558655 3.344921c-0.07261658 0.60173416 -0.17636108 1.0264854 -0.31121826 1.2742577c-0.1867218 0.3716545 -0.43310547 0.5574837 -0.73913574 0.5574837l-0.35012817 0l0 0.98223877l9.118698 0l0.47460938 -11.441753l-0.2878723 0c-0.25935364 3.1856384 -0.6864166 5.557171 -1.281189 7.1145935c-0.59303284 1.5574265 -1.3823242 2.3361359 -2.3678436 2.3361359l-0.6302185 0c-0.3008423 0 -0.5187073 -0.14158249 -0.65356445 -0.42475128c-0.13485718 -0.2831688 -0.22735596 -0.645977 -0.27749634 -1.0884247c-0.048416138 -0.44245148 -0.07261658 -1.6547623 -0.07261658 -3.63694l0 -10.140951c0.50312805 0 0.8869629 0.22712517 1.1515045 0.6813736c0.26452637 0.448349 0.49621582 1.3273487 0.6950531 2.637001c0.20056152 1.3096504 0.3319702 2.990961 0.39421082 5.043928l0.2956543 0l0 -18.848366l-0.2956543 0c-0.08299255 2.7962837 -0.2749176 4.911194 -0.5757599 6.3447323c-0.3008423 1.4335365 -0.78582764 2.1503067 -1.4549408 2.1503067l-0.21006775 0l0 -14.653941l1.0892639 0c0.79878235 0 1.3434143 0.15928173 1.6338959 0.47784615c0.49794006 0.53094006 0.88264465 1.3627453 1.1540985 2.4954176c0.2731781 1.1326714 0.48498535 2.9998102 0.6354065 5.6014156l0.2956543 0l0 -10.645345z" fill-rule="evenodd"/><path stroke="#000000" stroke-width="1.0" stroke-linejoin="round" stroke-linecap="butt" d="m183.9016 5.0643044c-0.9388428 0 -1.7168884 1.0087857 -2.3341522 3.0263577c-0.61724854 2.0175714 -0.9258728 4.459895 -0.9258728 7.32697c0 1.6813097 0.11239624 3.221036 0.3371582 4.619176c0.22650146 1.3981419 0.54981995 2.6635494 0.9699707 3.7962208c0.4201355 1.1326714 1.1100006 2.5042667 2.0695953 4.1147842c0.6846771 1.1503696 1.1618805 2.085413 1.4316101 2.805132c0.26971436 0.7138176 0.47027588 1.4689331 0.6016846 2.2653427c0.13313293 0.7964096 0.19969177 1.6193695 0.19969177 2.468872c0 1.4335365 -0.17289734 2.690094 -0.518692 3.7696724c-0.34407043 1.0795784 -0.8065796 1.6193657 -1.3875122 1.6193657c-0.752121 0 -1.4540863 -1.0028877 -2.1059113 -3.0086594c-0.6501007 -2.011673 -1.0892792 -4.92889 -1.3174896 -8.7516575l-0.28788757 0l0 13.592062l0.28788757 0c0.09336853 -0.72562027 0.21525574 -1.2654076 0.36567688 -1.6193695c0.15042114 -0.35395813 0.2930603 -0.5309372 0.42793274 -0.5309372c0.16078186 0 0.36567688 0.17697906 0.61465454 0.5309372c0.44607544 0.63713074 0.8169403 1.0707321 1.1125946 1.3008041c0.29566956 0.23007584 0.6094818 0.34511185 0.94143677 0.34511185c1.0581512 0 1.9304199 -1.082531 2.6168365 -3.2475815c0.6881256 -2.1709557 1.0322113 -4.7607613 1.0322113 -7.7694225c0 -2.3715305 -0.212677 -4.4775925 -0.6380005 -6.318184c-0.43052673 -1.8405914 -1.263031 -3.7962208 -2.497528 -5.866886c-0.88179016 -1.4866314 -1.4445801 -2.5219631 -1.6883698 -3.105997c-0.33195496 -0.8141079 -0.57315063 -1.6370649 -0.7235718 -2.468871c-0.108932495 -0.6194296 -0.16339111 -1.3273497 -0.16339111 -2.1237593c0 -1.2565575 0.15386963 -2.365631 0.4616394 -3.3272228c0.30947876 -0.96749115 0.728775 -1.4512362 1.257843 -1.4512362c0.6846771 0 1.3209381 0.91734695 1.9087982 2.7520385c0.58958435 1.8287935 0.9595947 4.2475185 1.1100159 7.256178l0.31900024 0l-0.08558655 -11.999241l-0.2334137 0c-0.06742859 1.0795779 -0.14004517 1.7609506 -0.21784973 2.0441184c-0.077804565 0.28316832 -0.18414307 0.42475224 -0.31900024 0.42475224c-0.14004517 0 -0.38557434 -0.28611803 -0.736557 -0.85835314c-0.34925842 -0.57813454 -0.6457672 -0.9733896 -0.8895569 -1.1857653c-0.32159424 -0.28316832 -0.65356445 -0.42475224 -0.9958954 -0.42475224z" fill-rule="evenodd"/></g></svg>